<svg width="245" height="204" xmlns="http://www.w3.org/2000/svg" xmlns:xlink="http://www.w3.org/1999/xlink">
    <defs>
        <linearGradient x1="49.977%" y1="100.019%" x2="49.977%" y2=".025%" id="c">
            <stop stop-color="#FFF" offset="0%"/>
            <stop stop-color="#CCC" offset="100%"/>
        </linearGradient>
        <linearGradient x1="49.977%" y1="100.019%" x2="49.977%" y2=".025%" id="d">
            <stop stop-color="#FFF" offset="0%"/>
            <stop stop-color="#CCC" offset="100%"/>
        </linearGradient>
        <linearGradient x1="49.977%" y1="100.019%" x2="49.977%" y2=".025%" id="e">
            <stop stop-color="#FFF" offset="0%"/>
            <stop stop-color="#CCC" offset="100%"/>
        </linearGradient>
        <linearGradient x1="49.977%" y1="100.019%" x2="49.977%" y2=".025%" id="f">
            <stop stop-color="#FFF" offset="0%"/>
            <stop stop-color="#CCC" offset="100%"/>
        </linearGradient>
        <linearGradient x1="49.977%" y1="100.019%" x2="49.977%" y2=".025%" id="g">
            <stop stop-color="#FFF" offset="0%"/>
            <stop stop-color="#CCC" offset="100%"/>
        </linearGradient>
        <linearGradient x1="49.977%" y1="100.019%" x2="49.977%" y2=".025%" id="h">
            <stop stop-color="#FFF" offset="0%"/>
            <stop stop-color="#CCC" offset="100%"/>
        </linearGradient>
        <linearGradient x1="49.977%" y1="100.019%" x2="49.977%" y2=".025%" id="i">
            <stop stop-color="#FFF" offset="0%"/>
            <stop stop-color="#CCC" offset="100%"/>
        </linearGradient>
        <linearGradient x1="49.977%" y1="100.019%" x2="49.977%" y2=".025%" id="j">
            <stop stop-color="#FFF" offset="0%"/>
            <stop stop-color="#CCC" offset="100%"/>
        </linearGradient>
        <linearGradient x1="-10.053%" y1="84.955%" x2="129.334%" y2="3.83%" id="k">
            <stop stop-color="#FFB700" offset="43%"/>
            <stop stop-color="#FF9A00" offset="100%"/>
        </linearGradient>
        <linearGradient x1="9.849%" y1="27.778%" x2="90.746%" y2="72.529%" id="l">
            <stop stop-color="#FFB700" offset="43%"/>
            <stop stop-color="#FF9A00" offset="100%"/>
        </linearGradient>
        <rect id="a" x="0" y="0" width="245" height="204" rx="10"/>
    </defs>
    <g fill="none" fill-rule="evenodd">
        <mask id="b" fill="#fff">
            <use xlink:href="#a"/>
        </mask>
        <g mask="url(#b)">
            <g fill-rule="nonzero">
                <path d="M177.125 60.961c.51 3.97.616 7.964.363 11.939-.026.491-.094.936-.12 1.427-.075.579-.106 1.254-.18 1.833-2.722-6.371-10.196-11.294-19.202-11.766-.358-.018-.761-.04-1.122-.014.054-.176.056-.22.16-.484.005-.09.101-.219.108-.353l.003-.045c.002-.044.004-.089.052-.131.058-.266.117-.532.22-.795.177-.798.356-1.64.535-2.482.007-.134.061-.31.07-.489.01-.179.057-.22.064-.355.062-.31.078-.623.14-.934.206-1.378.326-2.806.4-4.236l.071-1.34.03-.581c.012-.224.022-.402-.014-.583l.024-.447c.007-.134.014-.268-.024-.405l.007-.134a5.47 5.47 0 0 0-.045-.854c-.024-.404-.05-.764-.074-1.169a1.236 1.236 0 0 0-.023-.404l-.086-.946.003-.044a8.939 8.939 0 0 0-.123-1.082c-.031-.27-.062-.541-.095-.767.005-.09-.033-.226-.028-.315.004-.09-.036-.181-.031-.27l-.097-.722c.002-.045.005-.09-.038-.137-.035-.181-.073-.317-.066-.451.007-.135-.028-.316-.064-.497l.003-.044c-.074-.318-.104-.588-.178-.906-.068-.407-.184-.771-.255-1.133a6.89 6.89 0 0 1-.184-.772c.002-.045.005-.09-.038-.136l-.07-.363a2.583 2.583 0 0 0-.192-.637c-.08-.183-.073-.317-.156-.456-.082-.139-.035-.181-.075-.273l-.08-.183c-.118-.32-.192-.638-.312-.913l-.156-.456-.156-.456c-.04-.092-.037-.137-.077-.229-.078-.228-.201-.458-.281-.642l-.2-.458-.201-.459s-.043-.047-.04-.092l-.121-.275c-.04-.091-.123-.23-.163-.322l-.082-.139-.04-.091-.366-.737c-.123-.23-.286-.552-.408-.783l-.203-.414a.339.339 0 0 1-.08-.183 8.979 8.979 0 0 0-.29-.463c-.126-.186-.249-.417-.376-.558l-.21-.28a3.156 3.156 0 0 1-.292-.418l-.083-.139c-.127-.141-.21-.28-.337-.421l-.168-.233c-.212-.235-.422-.515-.634-.75l-.34-.376c-.13-.097-.17-.188-.255-.283l-.085-.094-.214-.19a5.555 5.555 0 0 0-.944-.856l-.387-.334-.085-.094c-.087-.05-.13-.097-.217-.146l-.172-.143-.042-.047a9.524 9.524 0 0 0-1.564-1.023c.273-.076.59-.104.905-.132 5.11-.629 10.218 1.342 14.686 5.25l.172.144.127.141c.257.238.514.475.727.71.212.235.384.379.599.57.214.19.427.425.639.66l.045.003.64.66.634.75c.212.236.29.464.5.744.21.28.462.607.715.933l.46.652c.377.513.707 1.068 1.083 1.625l.04.092.585.837c.165.277.373.602.538.88.165.277.33.555.493.877.042.047.082.138.125.186.165.277.285.552.408.783.123.23.326.644.489.966l.443.965c.326.644.604 1.33.883 2.017.278.687.557 1.374.833 2.105.16.367.276.732.392 1.096.116.365.234.685.35 1.05.042.046.04.091.035.18.118.32.233.685.351 1.005.118.32.23.773.345 1.138.116.364.189.682.262 1 .04.091.033.225.073.317.074.318.19.682.262 1l.258 1.088c-.002.045.038.137.035.182.076.272.109.498.184.771.076.273.069.407.107.543.14.77.321 1.585.413 2.397l.135.858c-.11.398-.047.894.017 1.39z" fill="#FFF"/>
                <path d="M162.463 29.543c10.244 1.702 20.876 13.148 25.749 29.042 2.797 9.198 3.18 18.18 1.582 25.535-.898-4.304-5.526-7.728-11.26-8.029a14.44 14.44 0 0 0-1.392-.028c.075-.578.15-1.157.181-1.738.026-.491.094-.936.12-1.428a62.402 62.402 0 0 0-.363-11.938 85.554 85.554 0 0 0-.194-1.444l-.134-.859c-.14-.769-.277-1.582-.414-2.396-.035-.181-.068-.407-.106-.543-.03-.27-.109-.499-.184-.772.002-.045-.038-.136-.036-.181l-.257-1.089c-.071-.362-.19-.682-.262-1-.04-.091-.033-.225-.074-.317-.073-.317-.188-.682-.262-1-.073-.317-.229-.773-.344-1.138-.116-.364-.19-.682-.352-1.004.002-.045-.04-.092-.035-.181-.116-.365-.234-.685-.35-1.05-.116-.364-.231-.728-.392-1.095a91.713 91.713 0 0 0-.833-2.105c-.278-.687-.602-1.376-.925-2.065l-.488-.967-.489-.966c-.163-.322-.285-.553-.408-.783-.042-.047-.083-.139-.125-.186-.165-.278-.328-.6-.493-.877-.165-.278-.373-.602-.538-.88l-.583-.882-.04-.092c-.375-.557-.708-1.067-1.083-1.625l-.46-.651c-.252-.327-.462-.607-.715-.934-.252-.327-.422-.515-.59-.748-.167-.232-.424-.47-.636-.705l-.595-.659-.045-.002c-.212-.235-.427-.426-.639-.66-.212-.236-.384-.38-.554-.568-.17-.188-.47-.472-.727-.71l-.127-.14-.128-.142zM121.514 61.612c-.299-1.092-.32-2.327-.396-3.451-.038-.137-.028-.316-.02-.494.01-.18-.032-.226-.025-.36-.029-.315-.057-.63-.04-.943a44.279 44.279 0 0 1 .043-4.255l.07-1.34c.01-.18.021-.403.075-.58.014-.267.03-.58.09-.846.009-.179.02-.402.075-.578l.007-.135c.016-.312.075-.578.09-.846.065-.4.129-.755.194-1.155l.066-.4.184-.931.002-.045.236-1.063c.058-.266.117-.532.174-.753.005-.09.056-.22.061-.31l.059-.266c.056-.221.115-.487.172-.708l.052-.132c.06-.31.167-.618.273-.926l.002-.045c.106-.308.167-.619.271-.882.11-.397.219-.75.372-1.1.153-.351.212-.617.318-.925.106-.308.257-.614.365-.967.109-.353.257-.614.408-.92.15-.305.257-.613.405-.874.052-.132.151-.306.203-.438.052-.132.15-.306.202-.437.052-.132.151-.306.203-.438l.203-.437.245-.39.247-.436c.097-.13.149-.261.245-.39l.245-.39.246-.391.245-.39.532-.735.29-.388c.627-.818 1.376-1.623 2.088-2.348l.191-.214c.236-.212.474-.468.71-.68l.377-.338c.38-.384.807-.682 1.272-.971.139-.083.28-.21.42-.292l.419-.292c.186-.124.417-.247.603-.371.51-.287 1.064-.572 1.615-.812a12.106 12.106 0 0 1 11.067.58c.523.296 1.296.695 1.815 1.081l.042.047.39.29c.044.002.087.049.087.049l.386.334.387.334c.17.188.385.378.6.569.084.094.17.188.299.284l.255.283.34.376c.212.235.422.515.634.75l.167.233.42.56c.083.138.21.28.293.418.083.139.125.186.21.28l.375.557c.125.186.248.417.37.647l-.002.045.203.414c.165.277.288.508.408.783l.203.414c.04.092.125.186.163.322-.002.045.043.047.04.092l.083.139.12.275.163.322c-.002.045.042.047.04.092l.2.458.201.459c.038.136.118.32.156.456l.078.228c.04.092.038.137.078.228.038.137.118.32.156.457l.155.456c.118.32.236.64.312.912.038.137.118.32.156.457.038.136.118.32.156.456.037.136.11.454.19.637.039.137.076.273.112.454.075.273.15.546.184.772.069.407.184.771.255 1.133.073.318.149.59.177.906l-.002.045c.038.136.073.317.066.451-.007.134.073.318.066.452a.338.338 0 0 0 .036.18l.097.723c-.005.09.035.18.03.27-.004.09.034.226.029.315.03.27.061.541.094.767.026.36.053.72.123 1.082l-.002.045.085.945c-.007.134.031.27.024.405.024.404.05.764.074 1.169.03.27.014.583.045.853l-.007.134c-.007.134-.014.269.023.405l-.025.492c-.01.178-.021.402.014.583.035.18-.021.402-.03.58l-.068 1.297a45.849 45.849 0 0 1-.404 4.28c-.017.313-.078.624-.14.934a.983.983 0 0 1-.063.355c-.007.134-.061.31-.07.49-.134.844-.361 1.742-.585 2.582a4.627 4.627 0 0 1-.219.746c-.002.045-.004.09-.052.132l-.002.044c-.106.309-.24.57-.347.922-4.543-3.33-10.663-5.093-17.294-5.44-6.63-.348-13.257.247-18.123 3.084l-.073-.221c.052-.132.184-.198.192-.332z" fill="#FFD400"/>
                <path d="M121.542 61.992c-8.872-.296-17.907 4.234-21.16 10.179-.014-.584-.061-1.299-.03-1.88.025-.491.004-.94.03-1.432.163-3.98.685-7.94 1.608-11.835.116-.487.231-.974.344-1.416.059-.266.165-.574.224-.84.221-.795.44-1.545.661-2.34.055-.177.111-.398.163-.53.059-.265.16-.484.219-.75.002-.044.052-.131.054-.176.108-.353.262-.703.37-1.056.108-.353.214-.661.365-.967.05-.087.057-.22.106-.308.106-.308.26-.658.365-.967.106-.308.309-.745.462-1.096.153-.35.304-.656.455-.962.047-.042.05-.087.054-.176.153-.35.304-.656.457-1.007.153-.35.351-.698.504-1.049.351-.698.7-1.352 1.049-2.006.349-.654.742-1.305 1.133-1.912l.587-.91.587-.91c.196-.304.342-.52.488-.737l.144-.172c.193-.258.389-.562.582-.82.193-.26.433-.56.627-.819.193-.259.433-.56.627-.819l.05-.087c.386-.517.815-.987 1.246-1.503l.57-.597c.286-.299.524-.555.809-.854.285-.299.474-.468.665-.682.19-.214.471-.423.707-.635l.66-.593.045.003c.235-.212.471-.424.704-.59.234-.168.422-.337.611-.507.189-.169.516-.42.797-.63l.141-.127.142-.127c4.851-3.42 10.093-4.848 15.153-3.687.312.061.576.165.887.226-.552.24-1.106.524-1.615.811l-.603.372-.42.292c-.14.082-.28.21-.42.291l-1.266 1.01-.377.338c-.235.212-.474.468-.71.68l-.19.214c-.712.725-1.337 1.498-1.964 2.317l-.245.39c-.193.26-.34.475-.532.734l-.245.39c-.097.13-.149.262-.246.391l-.245.39c-.096.13-.148.262-.245.391l-.247.435-.245.39c-.052.132-.151.306-.203.438l-.247.435c-.052.132-.151.306-.203.438-.052.131-.15.305-.203.437-.15.306-.301.612-.407.92a8.055 8.055 0 0 1-.408.92c-.15.305-.257.613-.365.966-.108.353-.212.616-.318.924-.11.398-.264.748-.372 1.101-.106.308-.21.572-.27.882l-.003.045c-.106.308-.167.618-.273.927l-.055.176c-.056.221-.113.442-.172.708l-.058.266c-.005.09-.057.22-.062.31-.058.266-.117.532-.174.753l-.235 1.063-.003.045-.183.931-.066.4c-.066.4-.13.755-.195 1.155-.06.265-.076.578-.09.846l-.007.134c-.009.18-.066.4-.075.579-.061.31-.075.579-.09.847-.009.178-.02.402-.074.578l-.068 1.296a44.279 44.279 0 0 0-.044 4.255c.029.315.012.628.04.943a.983.983 0 0 0 .027.36c-.007.134.028.315.019.494a39.2 39.2 0 0 0 .364 3.335c.036.18-.061.31-.07.489l.002-.045-.002.045.096-.13z" fill="#FFF"/>
                <path d="M100.396 70.293c.015.584-.016 1.165-.001 1.748a13.981 13.981 0 0 0-1.387-.117c-5.78-.303-10.74 2.618-12.038 6.807-.82-7.481.5-16.374 4.243-25.23 6.507-15.297 18.232-25.572 28.643-26.191l-.142.127-.141.127c-.28.21-.561.419-.797.63-6.443 6.79-10.754 12.719-12.934 17.786-2.218 5.157-4.033 13.262-5.446 24.313z" fill="#FFD400"/>
                <path d="M103.567 68.085a15.77 15.77 0 0 0-3.172 3.956 13.981 13.981 0 0 0-1.387-.117c-5.78-.303-10.74 2.618-12.038 6.807.853 4.302 5.526 7.728 11.26 8.029.448.023.854 0 1.302.023.006-1.837.313-9.394 4.035-18.698zM178.533 76.091a14.44 14.44 0 0 0-1.39-.028c-.68-1.604-1.638-3.043-2.827-4.36 2.774 9.645 2.286 17.237 2.1 19.065.446.068.85.089 1.297.112 5.78.303 10.74-2.618 12.038-6.807-.81-4.255-5.438-7.679-11.218-7.982zM154.517 62.868c-4.186-2.415-9.372-3.762-14.972-4.055-5.377-.282-10.61.116-15.009 1.767-7.402 16.954-5.907 32.133-4.758 38.511 4.547 3.24 10.813 4.555 17.399 4.9 6.676.35 12.85-.895 17.761-3.73l.224.013a66.987 66.987 0 0 0-.645-37.406z" fill="#DE9700"/>
                <path d="M174.36 71.705c-3.646-4.134-9.608-6.956-16.419-7.313-.358-.019-.761-.04-1.122-.014-.736-.531-1.519-1.02-2.302-1.51 3.72 12.16 3.982 25.168.643 37.45l.896.047c9.05.475 16.988-3.546 20.316-9.6l.09.005c.183-1.783.67-9.375-2.101-19.065zM124.581 60.583a20.105 20.105 0 0 0-2.994 1.411l-.002.045.002-.045c-6.9-.362-13.815 2.144-18.11 6.086-3.722 9.305-4.028 16.861-4.035 18.698l.09.005c2.721 6.371 11.11 11.74 20.16 12.214l-.002.045c.043.047.13.096.173.143-2.233-13.111-.588-26.513 4.718-38.602z" fill="#D1D1D3"/>
                <path d="M177.143 76.915a.85.85 0 1 1 .089-1.699.824.824 0 0 1 .806.894.85.85 0 0 1-.895.805zm.067-1.296c-.268-.014-.457.155-.471.423-.014.268.156.456.425.47.268.014.457-.155.471-.423.012-.223-.2-.459-.425-.47zM156.775 65.227a.85.85 0 0 1-.807-.893c.023-.447.448-.828.896-.805a.85.85 0 1 1-.089 1.698zm.067-1.296c-.226.033-.374.294-.341.52a.541.541 0 0 0 .297.33c.269.013.457-.156.471-.424.012-.224-.155-.456-.427-.426zM121.498 62.84a.85.85 0 0 1-.807-.893c.023-.447.448-.828.896-.804a.85.85 0 0 1 .807.893c.02.45-.403.83-.896.805.045.002.045.002 0 0zm.068-1.295a.487.487 0 0 0-.43.47c-.011.224.161.367.383.424a.464.464 0 0 0 .386-.518c-.037-.136-.12-.275-.252-.327l-.09-.005.003-.044zM100.305 72.888a.85.85 0 0 1-.807-.894c.024-.447.448-.828.896-.804a.85.85 0 0 1 .807.893c.021.45-.403.83-.896.805zm.068-1.296a.464.464 0 0 0-.386.517c.037.137.12.275.25.372l.09.005a.486.486 0 0 0 .341-.52c-.035-.181-.118-.32-.295-.374zM99.488 87.632a.85.85 0 0 1-.807-.894c.023-.446.448-.827.896-.804a.85.85 0 0 1 .806.894c-.023.447-.447.828-.895.804zm.067-1.296c-.268-.014-.457.155-.471.424-.014.268.156.456.425.47.268.014.457-.155.471-.423a.449.449 0 0 0-.425-.47zM119.561 99.797a.85.85 0 1 1 .089-1.698.85.85 0 0 1 .807.894c.021.449-.403.83-.896.804.045.002.045.002 0 0zm.068-1.296c-.269-.014-.457.155-.472.423-.014.269.156.457.425.47.269.015.457-.154.472-.423a.449.449 0 0 0-.425-.47zM155.113 101.212a.85.85 0 0 1-.806-.894c.023-.446.447-.828.895-.804a.85.85 0 0 1 .807.894c.021.449-.403.83-.896.804zm.068-1.296c-.269-.014-.457.155-.469.379-.012.223.156.456.38.468.224.012.457-.155.469-.379.059-.266-.111-.454-.38-.468zM176.46 91.666a.824.824 0 0 1-.807-.894.824.824 0 0 1 .895-.804.824.824 0 0 1 .807.894c-.023.446-.448.828-.896.804zm.067-1.296a.464.464 0 0 0-.386.518c.037.136.12.275.25.371l.09.005a.486.486 0 0 0 .341-.52c-.08-.183-.163-.322-.295-.374z" fill="#6A6A6A"/>
                <path d="M52.298 121.268c-.045 0-.09 0-.09-.044a.215.215 0 0 1-.09-.269l38.18-69.718c.045-.09.18-.134.27-.09.09.045.134.18.09.314l-38.18 69.718a.34.34 0 0 1-.18.09z" fill="url(#c)" transform="rotate(3 -337.685 1719.36)"/>
                <path d="M52.298 121.268c-.09 0-.134-.044-.18-.09L13.402 51.462c-.045-.09 0-.224.09-.313.09-.045.224 0 .313.089l38.674 69.718c.045.09 0 .224-.09.269 0 .044-.045.044-.09.044z" fill="url(#d)" transform="rotate(3 -337.685 1719.36)"/>
                <path d="M52.298 121.268h-.045c-.134-.044-.18-.134-.18-.268l17.229-80.234c.045-.134.135-.18.27-.18.089 0 .179.135.179.225l-17.273 80.323c0 .09-.09.134-.18.134z" fill="url(#e)" transform="rotate(3 -337.685 1719.36)"/>
                <path d="M52.298 121.268c-.09 0-.18-.09-.224-.179l-18.08-80.86c-.045-.134.044-.224.134-.269.09-.044.224 0 .27.135v.044l18.08 80.906c.045.134-.045.223-.135.268l-.045-.045z" fill="url(#f)" transform="rotate(3 -337.685 1719.36)"/>
                <path d="M52.298 121.268c-.045 0-.09 0-.134-.044-.09-.09-.135-.18-.045-.314l38.224-54.906c.045-.09.18-.134.314-.045.09.045.135.18.045.269l-38.224 54.95c-.045.09-.135.09-.18.09z" fill="url(#g)" transform="rotate(3 -337.685 1719.36)"/>
                <path d="M52.298 121.268h-.09c-.09-.044-.179-.179-.134-.268L69.57 76.654c.045-.09.18-.179.27-.134.089.045.179.134.134.268L52.478 121.09c-.045.135-.09.18-.18.18z" fill="url(#h)" transform="rotate(3 -337.685 1719.36)"/>
                <path d="M52.298 121.268c-.09 0-.18-.044-.18-.134l-18.08-43.853c-.045-.09 0-.224.135-.269.09-.045.224 0 .27.134L52.522 121c.044.09 0 .224-.135.268h-.09z" fill="url(#i)" transform="rotate(3 -337.685 1719.36)"/>
                <path d="M52.298 121.268c-.09 0-.134-.044-.18-.09l-38.807-54.95c-.09-.09-.045-.224.045-.313.09-.09.224-.045.314.044l38.808 54.996a.275.275 0 0 1-.045.313h-.135z" fill="url(#j)" transform="rotate(3 -337.685 1719.36)"/>
                <path fill="#E2C6A4" d="m144.336 128.076 8.64 7.443-1.685 28.725-9.019-5.357z"/>
                <path fill="#B78C6E" d="m151.291 164.244-28.956.454-8.569-4.527 15.672-.702 1.622-.094 11.212-.488z"/>
                <path fill="#F5E9D3" d="m113.766 160.171 2.893-29.468 27.811-2.62-2.198 30.804z"/>
                <path d="M142.272 158.887s.146-1.92.298-4.824c.152-2.905.443-6.743.734-10.581.291-3.839.582-7.677.78-10.58.196-2.902.386-4.819.386-4.819s-.145 1.92-.297 4.824c-.153 2.905-.444 6.743-.735 10.582-.29 3.838-.582 7.676-.779 10.579-.197 2.902-.387 4.819-.387 4.819zM142.272 158.887l-4.459.214-9.774.474-9.771.429-4.457.17 4.46-.215 9.773-.474 9.816-.426z" fill="#F2F2F2"/>
                <path fill="#C9AA7B" d="m148.067 162.327 1.685-29.576-2.064-1.766-1.975 29.964z"/>
                <path fill="#97805C" d="m145.713 160.95 2.354 1.377-27.961 1.179-2.8-1.447z"/>
                <path d="M131.05 144.12c.18.01.361-.026.54-.016.09.004.135.007.085.094-.018.357-.082.712-.1 1.07-.005.09-.052.132-.142.127-.36.026-.72.007-1.08.033-.09-.005-.134-.007-.085-.094.019-.358.082-.713.101-1.07.005-.09.052-.132.142-.127.179.009.358.018.54-.017m-.896 2.507c.01-.178.02-.357.028-.536.005-.09.05-.087.095-.085.36-.025.764-.004 1.125-.03.09.004.09.004.084.094-.009.179-.018.357-.075.578a.819.819 0 0 1-.617.64c-.227.033-.406.024-.632.057-.09-.005-.135-.007-.13-.097.104-.263.113-.442.122-.62m-3.313-1.07c-.224-.012-.406.023-.63.011-.09-.004-.134-.007-.13-.096.02-.358.083-.713.102-1.07.004-.09.051-.132.141-.127.406-.024.856-.045 1.262-.069.09.005.132.052.13.097-.02.357-.083.713-.1 1.025-.004.09-.051.132-.14.127-.23.078-.411.113-.635.102m.195-2.007c-.224-.011-.406.024-.63.012-.09-.005-.134-.007-.13-.096l.026-.492c.064-.355.394-.651.847-.717.181-.036.405-.024.584-.014.09.004.135.007.13.096-.019.357-.082.713-.1 1.07-.006.09-.05.087-.142.127-.18-.01-.361.026-.585.014m-.223 2.543c.224.012.45-.021.63-.012.09.005.134.007.13.096-.02.358-.083.713-.102 1.07-.005.09-.05.088-.141.128-.224-.012-.406.023-.63.011-.403-.02-.705-.26-.686-.618l.025-.492c.005-.09.052-.131.142-.127.226-.033.406-.023.632-.056m1.461-1.313c.087-.802.13-1.606.216-2.408.005-.09.007-.134.144-.172.856-.045 1.712-.09 2.566-.09.405-.023.705.262.684.664l-.026.491c-.005.09-.052.132-.141.127-.45.022-.901.043-1.396.062-.361.026-.455.11-.472.423l-.303 3.21c-.01.18-.01.18-.188.17-.361.026-.72.007-1.08.033-.135-.007-.18-.01-.173-.144-.005-.762.082-1.564.17-2.366m-4.923 3.91c-.077.623.255 1.133.83 1.298.178.054.357.063.491.07 2.476-.094 4.997-.186 7.473-.28.9-.043 1.516-.638 1.605-1.484.225-2.588.45-5.175.721-7.76.026-.491-.09-.856-.434-1.143-.948-.766-1.894-1.578-2.842-2.344a1.662 1.662 0 0 0-.927-.318c-1.486.057-2.924.071-4.41.128-.856.045-1.516.637-1.605 1.484" fill="#2E304A"/>
                <path d="M128.275 144.781c-.087.802-.129 1.607-.216 2.409-.007.134.036.18.172.143.361-.026.72-.007 1.08-.033.18.01.18.01.189-.17l.303-3.21c.016-.312.156-.395.471-.423.45-.021.901-.042 1.396-.061.09.004.137-.038.142-.127l.026-.492c.02-.402-.234-.684-.684-.663-.854 0-1.71.045-2.566.09-.134-.008-.139.082-.144.171-.04.76-.126 1.562-.169 2.366m-1.461 1.313c-.224-.012-.406.023-.63.012-.09-.005-.136.037-.141.127l-.026.491c-.019.358.28.642.686.619.224.011.406-.024.63-.012.09.005.137-.038.142-.127.018-.358.082-.713.1-1.07.005-.09-.04-.092-.13-.097-.228.078-.407.069-.631.057m.223-2.543c.224.012.406-.023.63-.011.09.004.136-.038.141-.128.019-.357.082-.712.101-1.07.005-.089-.04-.091-.13-.096-.179-.01-.405.023-.585.014-.45.021-.78.318-.846.718l-.026.491c-.004.09.04.092.13.096.18.01.36-.025.585-.014m-.195 2.007c.224.011.406-.024.63-.012.09.004.136-.038.141-.127.019-.358.082-.713.099-1.026.004-.09-.038-.136-.13-.096-.406.023-.856.045-1.262.068-.09-.005-.136.038-.141.127-.019.358-.082.713-.101 1.07-.005.09.038.137.13.097.228-.078.452-.066.634-.101" fill="#FFC600"/>
                <path d="m130.155 146.627-.028.537c-.004.089-.007.134.13.096.226-.033.406-.024.632-.056.318-.073.601-.327.617-.64.01-.179.02-.358.076-.579.002-.045.004-.09-.085-.094-.361.026-.767.05-1.125.03-.09-.004-.092.04-.094.085-.06.266-.113.443-.123.621M131.05 144.12c-.179-.01-.36.026-.54.017-.09-.005-.136.037-.14.127-.02.357-.083.712-.102 1.07-.005.09.04.092.085.094.36-.026.722-.052 1.08-.033.09.005.092-.04.141-.127.02-.358.083-.713.101-1.07.005-.09-.04-.092-.085-.094-.181.035-.36.026-.54.016" fill="#FFC600"/>
            </g>
            <path fill="#EE2737" fill-rule="nonzero" d="m107.823 130.99 52.324-7.353 6.203 44.137-52.324 7.354z"/>
            <path d="m166.322 133.839 5.278 37.554a1.548 1.548 0 0 1-1.312 1.75l-57.988 8.15a1.548 1.548 0 0 1-1.744-1.32l-5.278-37.555a1.53 1.53 0 0 1 .212-1.021l32.949 15.506 27.387-23.996c.26.232.444.557.496.932" fill="#FFC600"/>
            <g transform="rotate(-8 1024.756 -758.484)">
                <g transform="translate(0 .037)" fill-rule="nonzero">
                    <ellipse fill="url(#k)" cx="5.463" cy="5.553" rx="5.463" ry="5.553"/>
                    <path d="M6.15 4.384c.02-.373.166-.728.415-1.004a.678.678 0 0 1 1.082.056c.208.265.332.587.359.924a.423.423 0 0 1-.008.163c-.026.075-.054.175-.11.204-.056.03-.13-.047-.2-.084a.426.426 0 0 1-.082-.086c-.319-.337-.737-.335-1.058 0-.04.044-.084.086-.13.124-.13.103-.226.066-.26-.104a1.924 1.924 0 0 1-.008-.193zM4.785 4.326a.348.348 0 0 1-.01.15c-.03.1-.05.21-.114.249-.122.074-.21-.077-.292-.163-.325-.335-.737-.337-1.058 0a.15.15 0 0 1-.02.021c-.09.053-.188.159-.26.144-.13-.025-.108-.183-.108-.291a1.517 1.517 0 0 1 .39-1.033.682.682 0 0 1 1.078.013c.212.26.349.575.394.91z" fill="#2F3042"/>
                    <path d="M7.864 6.27a1.826 1.826 0 0 1-.211.414c-.52.762-1.27 1.284-2.19 1.284-.92 0-1.672-.529-2.19-1.284a2.029 2.029 0 0 1-.213-.414c.05.042.105.079.163.11.53.298 1.3.502 2.24.502.94 0 1.709-.204 2.239-.502a1.07 1.07 0 0 0 .162-.11z" fill="#FFF"/>
                    <path d="M7.923 6.022c-.009.086-.029.17-.059.25a1.07 1.07 0 0 1-.162.112c-.53.298-1.3.502-2.239.502-.94 0-1.71-.204-2.24-.502a1.038 1.038 0 0 1-.163-.11 1.071 1.071 0 0 1-.057-.25c-.02-.215.062-.375.322-.375h4.276c.26 0 .343.159.322.373z" fill="#FFF"/>
                </g>
                <g transform="translate(9.875)">
                    <ellipse fill="url(#l)" fill-rule="nonzero" cx="5.463" cy="5.553" rx="5.463" ry="5.553"/>
                    <path d="m8.134 6.267-4.978.008c0 2.426 2.157 2.562 2.495 2.562.337 0 2.46-.26 2.483-2.57z" fill="#2F3042" fill-rule="nonzero"/>
                    <path d="M7.115 8.354a2.92 2.92 0 0 1-1.466.485 2.876 2.876 0 0 1-1.508-.465 3.825 3.825 0 0 1 1.507-.287c.501-.007 1 .084 1.467.267zM2.696 4.398c.051.227.194.42.394.534.235.134.961.39.991.4.025.006.05.006.075 0a.194.194 0 0 0 .065-.042c.017-.03.525-.607.656-.857a.838.838 0 0 0 .074-.667.634.634 0 0 0-.584-.487.632.632 0 0 0-.626.43.64.64 0 0 0-.76-.047.664.664 0 0 0-.28.72l-.005.016zM8.767 4.432a.828.828 0 0 1-.394.534c-.235.133-.96.39-.99.408a.182.182 0 0 1-.075 0 .176.176 0 0 1-.064-.043c-.017-.029-.526-.606-.657-.854a.84.84 0 0 1-.076-.667.636.636 0 0 1 .582-.486.633.633 0 0 1 .627.424.64.64 0 0 1 .76-.05c.236.152.35.441.283.718l.004.016z" fill="#E82737"/>
                </g>
                <g transform="translate(19.12 .037)" fill-rule="nonzero">
                    <ellipse fill="url(#k)" cx="5.463" cy="5.553" rx="5.463" ry="5.553"/>
                    <path d="M6.15 4.384c.02-.373.166-.728.415-1.004a.678.678 0 0 1 1.082.056c.208.265.332.587.359.924a.423.423 0 0 1-.008.163c-.026.075-.054.175-.11.204-.056.03-.13-.047-.2-.084a.426.426 0 0 1-.082-.086c-.319-.337-.737-.335-1.058 0-.04.044-.084.086-.13.124-.13.103-.226.066-.26-.104a1.924 1.924 0 0 1-.008-.193zM4.785 4.326a.348.348 0 0 1-.01.15c-.03.1-.05.21-.114.249-.122.074-.21-.077-.292-.163-.325-.335-.737-.337-1.058 0a.15.15 0 0 1-.02.021c-.09.053-.188.159-.26.144-.13-.025-.108-.183-.108-.291a1.517 1.517 0 0 1 .39-1.033.682.682 0 0 1 1.078.013c.212.26.349.575.394.91z" fill="#2F3042"/>
                    <path d="M7.864 6.27a1.826 1.826 0 0 1-.211.414c-.52.762-1.27 1.284-2.19 1.284-.92 0-1.672-.529-2.19-1.284a2.029 2.029 0 0 1-.213-.414c.05.042.105.079.163.11.53.298 1.3.502 2.24.502.94 0 1.709-.204 2.239-.502a1.07 1.07 0 0 0 .162-.11z" fill="#FFF"/>
                    <path d="M7.923 6.022c-.009.086-.029.17-.059.25a1.07 1.07 0 0 1-.162.112c-.53.298-1.3.502-2.239.502-.94 0-1.71-.204-2.24-.502a1.038 1.038 0 0 1-.163-.11 1.071 1.071 0 0 1-.057-.25c-.02-.215.062-.375.322-.375h4.276c.26 0 .343.159.322.373z" fill="#FFF"/>
                </g>
                <ellipse fill="url(#l)" fill-rule="nonzero" cx="34.459" cy="5.553" rx="5.463" ry="5.553"/>
            </g>
            <path d="m153.177 136.296-4.929.701c.339 2.41 2.494 2.245 2.829 2.198.334-.047 2.4-.6 2.1-2.899z" fill="#2F3042" fill-rule="nonzero"/>
            <path d="M152.46 138.51c-.394.351-.87.588-1.384.688a2.87 2.87 0 0 1-1.56-.253c.447-.262.941-.43 1.453-.495a3.89 3.89 0 0 1 1.49.06zM147.53 135.196c.083.218.252.39.466.476.251.1 1.006.253 1.037.26a.182.182 0 0 0 .074-.01.194.194 0 0 0 .058-.052c.013-.032.436-.677.53-.943a.843.843 0 0 0-.02-.673.635.635 0 0 0-.646-.403.632.632 0 0 0-.56.514.639.639 0 0 0-.76.06.668.668 0 0 0-.175.755l-.003.016zM153.547 134.384a.83.83 0 0 1-.315.586c-.214.165-.896.522-.924.543a.182.182 0 0 1-.074.01.176.176 0 0 1-.07-.033c-.02-.026-.604-.529-.769-.757a.846.846 0 0 1-.169-.653.636.636 0 0 1 .51-.563.633.633 0 0 1 .68.334.639.639 0 0 1 .744-.155c.256.118.41.39.381.673l.006.015z" fill="#E82737"/>
        </g>
    </g>
</svg>
