<svg width="470" height="358" viewBox="0 0 470 358" fill="none" xmlns="http://www.w3.org/2000/svg">
<path d="M101.074 34.7557C101.909 32.3406 98.5292 28.9899 93.5246 27.2716C88.52 25.5533 83.7862 26.1183 82.9512 28.5333C82.1163 30.9484 85.4965 34.2992 90.5011 36.0174C95.5057 37.7357 100.24 37.1708 101.074 34.7557Z" fill="white"/>
<path d="M195.151 25.7664C196.179 24.5147 194.899 21.7774 192.293 19.6526C189.688 17.5277 186.742 16.8199 185.714 18.0716C184.687 19.3233 185.966 22.0604 188.572 24.1853C191.178 26.3101 194.124 27.0181 195.151 25.7664Z" fill="white"/>
<path d="M58.8189 134.565C63.0481 131.39 67.7167 129.146 69.2546 131.171C70.7925 133.196 68.5956 137.438 64.3938 140.586C60.1921 143.733 55.4959 144.663 53.958 142.611C52.4201 140.558 54.6172 137.712 58.8189 134.537V134.565Z" fill="#CADEF8"/>
<path d="M58.4472 207.429L57.2938 213.176C57.2938 213.176 41.1184 208.743 32.6875 220.456C32.6875 220.456 35.3788 204.747 58.4472 207.429Z" fill="#FFB19F"/>
<path d="M32.6868 220.482C32.6868 220.482 27.6888 227.379 46.9125 241.556L41.9143 246.537C41.9143 246.537 26.5353 235.425 32.6868 220.482Z" fill="#FF886D"/>
<path d="M46.9118 241.553L44.2204 249.216L28.457 248.449C28.457 248.449 29.226 242.702 32.3018 241.936L46.9118 241.553Z" fill="#FFB19F"/>
<path d="M344.35 157.537C346.294 155.872 345.072 151.28 341.621 147.28C338.17 143.28 333.797 141.388 331.853 143.053C329.91 144.718 331.132 149.311 334.583 153.311C338.034 157.31 342.407 159.203 344.35 157.537Z" fill="white"/>
<path d="M250.318 114.921C251.839 114.357 252.121 111.351 250.947 108.206C249.774 105.06 247.589 102.968 246.067 103.532C244.546 104.096 244.264 107.102 245.438 110.248C246.611 113.393 248.796 115.485 250.318 114.921Z" fill="white"/>
<path d="M418.855 78.189C413.61 78.7911 408.42 78.4079 408.117 75.8627C407.815 73.3175 411.852 70.7723 417.098 70.1702C422.343 69.5681 426.847 71.1281 427.149 73.6459C427.451 76.1637 424.101 77.5595 418.855 78.1616V78.189Z" fill="white"/>
<path d="M365.11 30.623L369.009 26.2441C369.009 26.2441 380.736 38.2038 393.945 32.3471C393.945 32.3471 383.674 44.5532 365.082 30.6504L365.11 30.623Z" fill="#FFB19F"/>
<path d="M393.976 32.3461C393.976 32.3461 401.775 28.8977 392.355 6.97615L399.194 5.19727C399.194 5.19727 406.855 22.5211 393.976 32.3461Z" fill="#FF886D"/>
<path d="M392.355 6.97531L398.562 1.7207L411.799 10.3142C411.799 10.3142 408.229 14.8846 405.18 14.0088L392.355 7.0027V6.97531Z" fill="#FFB19F"/>
<path fill-rule="evenodd" clip-rule="evenodd" d="M303.791 57.8432C303.545 58.1947 303.284 58.4949 303.087 58.8766C302.651 59.7217 302.437 60.6562 302.161 61.5589C301.242 64.5428 300.619 67.6073 299.777 70.6199C299.077 73.2814 298.404 75.9493 297.777 78.6332C295.532 88.2564 293.564 97.9695 291.091 107.514C290.87 108.363 290.571 109.196 290.437 110.064C290.402 110.294 290.417 110.507 290.407 110.74C290.352 110.929 290.46 111.127 290.65 111.182C290.839 111.237 291.038 111.128 291.093 110.94C291.217 110.709 291.352 110.509 291.453 110.271C291.835 109.355 292.048 108.379 292.323 107.426C293.127 104.652 293.835 101.848 294.528 99.0391C295.914 93.4411 297.192 87.8063 298.481 82.1777C299.338 78.4321 300.185 74.6833 301.125 70.9665C302.036 67.0629 302.69 63.1257 303.843 59.2822C303.882 59.1552 303.93 59.0314 303.95 58.898C304.005 58.5662 303.991 58.2678 304.021 57.9326C304.045 57.8707 304.015 57.8004 303.951 57.7734C303.889 57.7494 303.819 57.7797 303.791 57.8432Z" fill="#302005"/>
<path fill-rule="evenodd" clip-rule="evenodd" d="M295.113 88.9991C295.113 88.9991 295.136 85.0549 291.179 78.4329C286.764 71.0481 281.217 75.6137 286.215 82.1595C290.073 87.2145 296.253 90.4123 295.113 88.9991Z" fill="#9B772B"/>
<path fill-rule="evenodd" clip-rule="evenodd" d="M295.914 99.6033C295.914 99.6033 299.872 99.6028 306.489 95.6115C313.87 91.1606 309.252 85.6675 302.716 90.6896C297.668 94.5684 294.499 100.746 295.913 99.6002L295.914 99.6033Z" fill="#9B772B"/>
<path fill-rule="evenodd" clip-rule="evenodd" d="M295.861 90.493C296.118 90.2021 296.059 90.5898 296.112 90.2051C296.12 90.143 296.06 90.0911 296.029 90.0365C295.591 89.2023 295.067 88.417 294.552 87.6317C293.886 86.6181 293.214 85.6075 292.484 84.6367C291.753 83.6659 290.966 82.7536 290.234 81.7874C290.179 81.6983 290.06 81.6753 289.973 81.7288C289.885 81.7869 289.861 81.9031 289.914 81.9891C290.511 83.0906 291.095 84.1904 291.76 85.2506C292.746 86.8237 293.815 88.3449 294.791 89.9226C294.935 90.154 295.046 90.4131 295.228 90.6185C295.254 90.6483 295.276 90.6764 295.316 90.6877C295.683 90.7723 295.28 90.6936 295.652 90.6136C295.684 90.6714 295.76 90.6923 295.818 90.6603C295.877 90.6283 295.898 90.5524 295.865 90.4946L295.861 90.493Z" fill="#302005"/>
<path fill-rule="evenodd" clip-rule="evenodd" d="M293.255 102.027C293.698 102.234 293.193 102.297 293.69 102.234C293.722 102.23 293.743 102.192 293.767 102.169C294.006 101.961 294.261 101.736 294.528 101.498C295.762 100.397 297.331 99.1182 298.951 97.7758C300.464 96.5239 301.981 95.1929 303.402 94.0006C303.522 93.9118 303.545 93.7458 303.456 93.6267C303.367 93.5077 303.2 93.4842 303.081 93.5731C301.63 94.5319 300.039 95.536 298.538 96.6124C297.515 97.3443 296.534 98.1061 295.643 98.8441C294.627 99.6848 293.702 100.481 293.016 101.243C292.961 101.305 292.871 101.352 292.863 101.43C292.811 101.926 292.856 101.425 293.079 101.858C293.034 101.907 293.033 101.985 293.082 102.03C293.132 102.076 293.21 102.077 293.255 102.027Z" fill="#302005"/>
<path fill-rule="evenodd" clip-rule="evenodd" d="M304.973 56.8804C304.973 56.8804 298.932 67.3726 297.866 73.9821C296.807 80.5575 303.791 81.6497 305.129 74.6609C306.338 68.3372 304.978 56.882 304.978 56.882L304.973 56.8804Z" fill="#E24027"/>
<path fill-rule="evenodd" clip-rule="evenodd" d="M304.032 55.6021C304.032 55.6021 293.707 49.5522 287.185 48.5177C280.692 47.4881 279.572 54.5647 286.468 55.8734C292.706 57.0572 304.034 55.6053 304.034 55.6053L304.032 55.6021Z" fill="#E24027"/>
<path fill-rule="evenodd" clip-rule="evenodd" d="M304.164 55.071C304.164 55.071 297.558 45.018 292.171 41.1728C286.81 37.3497 282.728 43.2208 288.327 47.4767C293.395 51.3263 304.164 55.071 304.164 55.071Z" fill="#E24027"/>
<path fill-rule="evenodd" clip-rule="evenodd" d="M305.832 55.2338C305.832 55.2338 316.353 49.4022 320.649 44.2852C324.919 39.1958 319.533 34.5926 314.812 39.8931C310.54 44.6857 305.832 55.2338 305.832 55.2338Z" fill="#E24027"/>
<path fill-rule="evenodd" clip-rule="evenodd" d="M305.878 55.9504C305.878 55.9504 317.841 56.0834 324.05 53.75C330.226 51.4255 327.785 44.7249 321.119 47.0054C315.088 49.0704 305.881 55.9489 305.881 55.9489L305.878 55.9504Z" fill="#E24027"/>
<path fill-rule="evenodd" clip-rule="evenodd" d="M305.392 57.6021C305.392 57.6021 305.52 69.7092 307.966 75.9127C310.395 82.0819 316.963 79.3778 314.562 72.7119C312.391 66.6805 305.394 57.6052 305.394 57.6052L305.392 57.6021Z" fill="#E24027"/>
<path fill-rule="evenodd" clip-rule="evenodd" d="M305.068 55.2691C305.068 55.2691 311.11 44.7769 312.176 38.1674C313.235 31.592 306.251 30.4998 304.913 37.4886C303.704 43.8123 305.064 55.2675 305.064 55.2675L305.068 55.2691Z" fill="#E24027"/>
<path fill-rule="evenodd" clip-rule="evenodd" d="M305.78 56.5042C305.78 56.5042 316.105 62.5541 322.627 63.5886C329.12 64.6182 330.24 57.5417 323.344 56.2329C317.106 55.0491 305.778 56.501 305.778 56.501L305.78 56.5042Z" fill="#E24027"/>
<path fill-rule="evenodd" clip-rule="evenodd" d="M305.876 56.8743C305.876 56.8743 311.845 67.3292 316.984 71.5073C322.097 75.6634 326.534 70.0601 321.207 65.4559C316.389 61.292 305.876 56.8743 305.876 56.8743Z" fill="#E24027"/>
<path fill-rule="evenodd" clip-rule="evenodd" d="M304.736 56.334C304.736 56.334 294.215 62.1656 289.92 67.2826C285.65 72.372 291.035 76.9752 295.757 71.6747C300.028 66.8821 304.736 56.334 304.736 56.334Z" fill="#E24027"/>
<path fill-rule="evenodd" clip-rule="evenodd" d="M304.198 56.1341C304.198 56.1341 292.236 56.0011 286.026 58.3346C279.851 60.6591 282.291 67.3596 288.957 65.0791C294.988 63.0141 304.195 56.1357 304.195 56.1357L304.198 56.1341Z" fill="#E24027"/>
<path fill-rule="evenodd" clip-rule="evenodd" d="M304.69 55.5911C304.69 55.5911 304.562 43.484 302.116 37.2804C299.687 31.1112 293.12 33.8153 295.52 40.4813C297.692 46.5126 304.689 55.5879 304.689 55.5879L304.69 55.5911Z" fill="#E24027"/>
<path fill-rule="evenodd" clip-rule="evenodd" d="M308.731 52.9654L314.234 45.3041C314.275 45.2455 314.258 45.1645 314.201 45.1266C314.142 45.0856 314.061 45.1019 314.02 45.1605L308.123 52.5613C308.007 52.7294 308.052 52.9552 308.224 53.0688C308.391 53.1808 308.62 53.1351 308.73 52.97L308.731 52.9654Z" fill="#A22518"/>
<path fill-rule="evenodd" clip-rule="evenodd" d="M306.472 52.617C306.938 50.0803 307.509 47.5508 307.844 44.9894C307.986 43.8848 308.017 42.7805 308.124 41.674C308.137 41.6135 308.098 41.5587 308.038 41.5457C307.979 41.5357 307.92 41.5755 307.909 41.6313C307.612 42.7064 307.277 43.7655 307.061 44.8632C306.568 47.4012 306.392 49.9938 306.044 52.5504C306.027 52.6668 306.108 52.7779 306.225 52.7947C306.344 52.8145 306.452 52.7349 306.472 52.617Z" fill="#A22518"/>
<path fill-rule="evenodd" clip-rule="evenodd" d="M304.597 57.8477L303.168 67.732C303.142 67.8762 303.243 68.0124 303.387 68.0357C303.53 68.0589 303.668 67.9609 303.69 67.8151L305.319 57.9764C305.354 57.7779 305.222 57.587 305.022 57.5523C304.823 57.5176 304.635 57.6477 304.597 57.8477Z" fill="#A22518"/>
<path fill-rule="evenodd" clip-rule="evenodd" d="M305.782 59.3839C306.607 61.1356 307.273 62.9679 308.11 64.7213C308.676 65.9032 309.352 67.0086 309.962 68.1614C309.997 68.241 310.089 68.2777 310.165 68.2443C310.247 68.2126 310.284 68.1213 310.249 68.0417C309.73 66.4967 309.285 64.9277 308.653 63.4188C308.022 61.9131 307.211 60.4909 306.437 59.0583C306.348 58.8771 306.123 58.8049 305.946 58.8947C305.764 58.9829 305.69 59.2043 305.779 59.3854L305.782 59.3839Z" fill="#A22518"/>
<path fill-rule="evenodd" clip-rule="evenodd" d="M307.446 57.9423C308.879 59.1131 310.218 60.3947 311.678 61.5253C312.662 62.2844 313.715 62.9323 314.741 63.6358C314.818 63.6988 314.932 63.686 314.997 63.6121C315.06 63.5351 315.047 63.4215 314.97 63.3586C314.078 62.4933 313.249 61.5821 312.314 60.7645C310.918 59.5413 309.392 58.4814 307.896 57.3722C307.739 57.2478 307.509 57.278 307.384 57.4352C307.259 57.5924 307.288 57.8257 307.446 57.9501L307.446 57.9423Z" fill="#A22518"/>
<path fill-rule="evenodd" clip-rule="evenodd" d="M308.51 57.8799L315.483 58.3025C315.606 58.324 315.725 58.2351 315.744 58.1141C315.764 57.9885 315.676 57.8726 315.553 57.8511C314.394 57.6059 313.238 57.3669 312.058 57.252C310.885 57.1372 309.7 57.148 308.518 57.1497C308.315 57.1475 308.15 57.309 308.148 57.5109C308.146 57.7129 308.307 57.8778 308.507 57.8814L308.51 57.8799Z" fill="#A22518"/>
<path fill-rule="evenodd" clip-rule="evenodd" d="M308.702 55.6763C310.16 55.3203 311.643 54.9988 313.054 54.4496C314.465 53.9036 315.766 53.1451 317.099 52.4631C317.248 52.4026 317.319 52.2293 317.258 52.081C317.197 51.9328 317.023 51.8626 316.876 51.9263C315.462 52.3962 314.013 52.7553 312.608 53.275C311.205 53.7931 309.876 54.4612 308.493 54.978C308.297 55.0381 308.192 55.2436 308.251 55.4353C308.311 55.6302 308.518 55.7349 308.71 55.6763L308.702 55.6763Z" fill="#A22518"/>
<path fill-rule="evenodd" clip-rule="evenodd" d="M302.193 58.9126L294.751 66.7161C294.695 66.7745 294.694 66.8677 294.754 66.9274C294.812 66.984 294.906 66.985 294.966 66.925L302.725 59.4154C302.867 59.2693 302.859 59.0377 302.71 58.9009C302.565 58.7627 302.328 58.7695 302.191 58.9172L302.193 58.9126Z" fill="#A22518"/>
<path fill-rule="evenodd" clip-rule="evenodd" d="M301.829 56.6959C299.523 57.579 297.129 58.1613 294.819 59.0039C293.262 59.5701 291.764 60.2815 290.294 61.0879C290.137 61.1639 290.071 61.3543 290.152 61.5121C290.233 61.6699 290.422 61.7325 290.579 61.6564L302.107 57.3763C302.295 57.3006 302.384 57.0871 302.308 56.8999C302.232 56.7126 302.015 56.6249 301.83 56.6991L301.829 56.6959Z" fill="#A22518"/>
<path fill-rule="evenodd" clip-rule="evenodd" d="M303.012 54.4637L291.807 52.0163C291.675 51.9761 291.538 52.0539 291.501 52.184C291.464 52.3141 291.539 52.4516 291.671 52.4918C293.135 52.998 294.584 53.5118 296.074 53.9018C298.312 54.4844 300.6 54.8424 302.894 55.1817C303.096 55.2149 303.283 55.0817 303.316 54.8801C303.351 54.6817 303.213 54.4938 303.015 54.4622L303.012 54.4637Z" fill="#A22518"/>
<path fill-rule="evenodd" clip-rule="evenodd" d="M302.828 53.1643L294.976 48.1733C294.88 48.0962 294.732 48.1102 294.656 48.2089C294.575 48.3059 294.596 48.4506 294.692 48.5277C295.627 49.3717 296.584 50.1864 297.622 50.8994C299.169 51.961 300.837 52.8282 302.441 53.7848C302.616 53.8891 302.839 53.8386 302.945 53.6673C303.055 53.4944 302.999 53.2701 302.828 53.1643Z" fill="#A22518"/>
<path fill-rule="evenodd" clip-rule="evenodd" d="M303.835 52.1866L299.864 42.4652C299.838 42.3966 299.762 42.36 299.692 42.3826C299.623 42.4083 299.586 42.4841 299.612 42.5527C300.315 44.9198 300.901 47.3168 301.804 49.6099C302.193 50.5958 302.69 51.5331 303.166 52.4842C303.248 52.6684 303.467 52.7514 303.652 52.6695C303.837 52.5875 303.92 52.3693 303.84 52.1883L303.835 52.1866Z" fill="#A22518"/>
<path d="M303.404 63.1606C307.452 63.9635 311.397 61.288 312.217 57.1847C313.036 53.0814 310.419 49.1042 306.372 48.3014C302.324 47.4985 298.379 50.174 297.559 54.2773C296.74 58.3806 299.356 62.3578 303.404 63.1606Z" fill="#280504"/>
<g opacity="0.6">
<path fill-rule="evenodd" clip-rule="evenodd" d="M309.053 54.9808L307.29 54.421L307.474 53.8546L309.236 54.4144L309.053 54.9808Z" fill="#F5C879"/>
<path fill-rule="evenodd" clip-rule="evenodd" d="M302.5 55.0882L300.738 54.5285L300.921 53.962L302.683 54.5218L302.5 55.0882Z" fill="#F5C879"/>
<path fill-rule="evenodd" clip-rule="evenodd" d="M308.703 58.7953L306.941 58.2355L307.124 57.669L308.886 58.2288L308.703 58.7953Z" fill="#F5C879"/>
<path fill-rule="evenodd" clip-rule="evenodd" d="M303.635 59.7953L301.872 59.2355L302.056 58.669L303.818 59.2288L303.635 59.7953Z" fill="#F5C879"/>
<path fill-rule="evenodd" clip-rule="evenodd" d="M306.07 51.6058L304.308 51.046L304.491 50.4796L306.254 51.0394L306.07 51.6058Z" fill="#F5C879"/>
<ellipse cx="0.394781" cy="0.394706" rx="0.394781" ry="0.394706" transform="matrix(0.439013 0.898481 -0.89967 0.436571 305.5 54.7422)" fill="#F5C879"/>
<ellipse cx="0.394781" cy="0.394706" rx="0.394781" ry="0.394706" transform="matrix(0.439013 0.898481 -0.89967 0.436571 308.832 51.3711)" fill="#F5C879"/>
<ellipse cx="0.394781" cy="0.394706" rx="0.394781" ry="0.394706" transform="matrix(0.439013 0.898481 -0.89967 0.436571 307.084 60.3984)" fill="#F5C879"/>
<ellipse cx="0.394781" cy="0.394706" rx="0.394781" ry="0.394706" transform="matrix(0.439013 0.898481 -0.89967 0.436571 300.41 56.918)" fill="#F5C879"/>
<ellipse cx="0.394781" cy="0.394706" rx="0.394781" ry="0.394706" transform="matrix(0.439013 0.898481 -0.89967 0.436571 302.465 51.541)" fill="#F5C879"/>
</g>
<path fill-rule="evenodd" clip-rule="evenodd" d="M412.37 190.088C412.37 190.088 405.592 191.271 396.629 187.052C389.634 183.759 392.764 177.606 399.772 180.774C408.03 184.5 412.366 190.089 412.366 190.089L412.37 190.088Z" fill="#525D1E"/>
<path fill-rule="evenodd" clip-rule="evenodd" d="M412.014 188.441C410.855 187.864 409.759 187.207 408.558 186.749C405.758 185.686 402.818 185.174 399.872 184.521C399.711 184.471 399.537 184.567 399.492 184.73C399.447 184.893 399.538 185.064 399.699 185.113C402.509 186.146 405.126 187.503 407.947 188.451C409.157 188.859 410.413 189.065 411.664 189.386C411.927 189.486 412.216 189.351 412.316 189.09C412.416 188.828 412.279 188.536 412.018 188.441L412.014 188.441Z" fill="#112107"/>
<path fill-rule="evenodd" clip-rule="evenodd" d="M391.645 143.99C391.794 144.476 391.895 144.941 392.076 145.409C392.152 145.602 392.253 145.786 392.347 145.968C393.093 147.456 393.849 148.875 394.564 150.271C396.341 153.737 397.949 156.985 399.476 160.163C401.866 165.14 404.044 169.96 406.211 175.276C409.451 183.229 412.596 192.306 416.894 204.457C417.233 205.418 417.293 206.558 417.96 207.38C418.082 207.528 418.177 207.512 418.342 207.616C418.404 207.801 418.603 207.898 418.788 207.836C418.973 207.774 419.07 207.576 419.008 207.391C419.073 207.188 419.164 207.114 419.163 206.901C419.159 205.627 418.397 204.501 418.013 203.345C412.931 188.063 409.087 177.78 404.909 168.316C403.227 164.507 401.493 160.831 399.538 157.043C397.743 153.565 395.761 149.991 393.532 146.106C393.351 145.788 393.19 145.45 392.976 145.147C392.649 144.682 392.26 144.296 391.885 143.849C391.848 143.786 391.768 143.763 391.703 143.796C391.64 143.833 391.617 143.912 391.65 143.977L391.645 143.99Z" fill="#302005"/>
<path fill-rule="evenodd" clip-rule="evenodd" d="M410.593 183.951C410.716 183.574 410.864 183.259 410.954 182.873C411.012 182.636 411.029 182.396 411.058 182.157C411.356 179.73 411.713 177.374 412.21 175.048C413.057 171.094 414.61 167.333 415.432 163.273C415.525 162.808 415.514 162.36 415.557 161.881C415.65 161.586 415.486 161.272 415.193 161.179C414.896 161.086 414.582 161.25 414.488 161.542C414.25 161.959 413.981 162.322 413.791 162.76C412.125 166.624 411.384 170.71 410.687 174.755C410.272 177.155 409.977 179.593 409.996 182.097C409.996 182.345 409.992 182.591 410.027 182.836C410.086 183.231 410.214 183.56 410.323 183.948C410.322 184.023 410.378 184.082 410.454 184.083C410.529 184.083 410.589 184.027 410.589 183.952L410.593 183.951Z" fill="#302005"/>
<path fill-rule="evenodd" clip-rule="evenodd" d="M395.3 150.025C395.3 150.025 388.585 142.164 390.512 130.358C392.916 115.634 409.284 117.723 406.713 132.162C404.949 142.091 395.3 150.025 395.3 150.025Z" fill="#EEA43A"/>
<path fill-rule="evenodd" clip-rule="evenodd" d="M395.294 150.027C395.294 150.027 384.668 151.493 375.398 143.882C363.838 134.392 374.78 122.096 386.001 131.578C393.716 138.093 395.298 150.03 395.298 150.03L395.294 150.027Z" fill="#EEA43A"/>
<path fill-rule="evenodd" clip-rule="evenodd" d="M395.505 149.948C395.505 149.948 385.638 145.974 381.594 134.584C376.55 120.376 392.252 114.848 397.009 128.879C400.281 138.522 395.505 149.951 395.505 149.951L395.505 149.948Z" fill="#F5C879"/>
<path fill-rule="evenodd" clip-rule="evenodd" d="M395.206 149.584C395.15 149.449 395.125 149.328 395.052 149.205C394.786 148.766 394.404 148.415 394.076 148.025C392.426 146.041 390.911 144.018 389.604 141.876C388.622 140.263 387.757 138.586 387.015 136.817C386.533 135.662 386.073 134.481 385.717 133.232C385.704 133.168 385.636 133.127 385.571 133.14C385.506 133.154 385.465 133.221 385.478 133.286C385.698 134.587 385.976 135.844 386.379 137.052C386.998 138.917 387.84 140.674 388.84 142.334C390.158 144.529 391.756 146.567 393.55 148.485C393.902 148.863 394.22 149.282 394.639 149.583C394.76 149.668 394.877 149.699 395.01 149.766C395.061 149.819 395.145 149.821 395.198 149.775C395.251 149.724 395.254 149.641 395.207 149.587L395.206 149.584Z" fill="#6F5320"/>
<path fill-rule="evenodd" clip-rule="evenodd" d="M395.279 149.238C395.282 149.139 395.301 149.056 395.288 148.956C395.239 148.611 395.067 148.295 394.932 147.972C394.552 147.043 394.087 146.145 393.683 145.233L389.196 135.198C389.185 135.165 389.15 135.148 389.116 135.159C389.083 135.17 389.066 135.205 389.077 135.238C389.478 136.664 389.898 138.073 390.419 139.45C391.202 141.511 392.152 143.501 393.072 145.514L395.028 149.326C395.051 149.396 395.129 149.431 395.2 149.409C395.27 149.386 395.306 149.308 395.283 149.237L395.279 149.238Z" fill="#6F5320"/>
<path fill-rule="evenodd" clip-rule="evenodd" d="M395.33 149.652C395.424 149.625 395.442 149.653 395.516 149.59C395.814 149.331 395.795 148.841 395.852 148.427C395.98 147.445 395.808 146.355 395.74 145.461C395.663 144.596 395.616 143.726 395.515 142.862C395.448 142.276 395.355 141.695 395.215 141.12L393.347 134.94C393.335 134.884 393.277 134.852 393.224 134.863C393.167 134.875 393.136 134.933 393.147 134.986L394.699 141.231C394.815 141.787 394.877 142.351 394.928 142.917C395.001 143.778 395.027 144.645 395.084 145.506C395.143 146.248 395.251 147.126 395.232 147.963C395.221 148.443 395.028 148.886 395.018 149.334C395.017 149.425 395.061 149.444 395.084 149.534C395.05 149.6 395.079 149.681 395.144 149.711C395.211 149.744 395.292 149.716 395.322 149.65L395.33 149.652Z" fill="#6F5320"/>
<path fill-rule="evenodd" clip-rule="evenodd" d="M394.192 149.517C394.111 149.47 394.052 149.415 393.965 149.378C393.298 149.09 392.567 148.89 391.886 148.533C390.747 147.932 389.649 147.169 388.672 146.494C386.552 145.05 384.521 143.347 382.689 141.46C381.226 139.955 379.93 138.3 378.755 136.601C378.455 136.169 378.145 135.748 377.86 135.31C377.828 135.253 377.756 135.232 377.699 135.264C377.643 135.295 377.622 135.367 377.654 135.423C377.88 135.902 378.11 136.379 378.377 136.841C379.437 138.655 380.802 140.315 382.266 141.863C384.105 143.804 386.18 145.526 388.326 147C389.331 147.677 390.452 148.455 391.634 149.032C392.362 149.386 393.099 149.786 393.863 149.822C393.963 149.825 394.041 149.8 394.141 149.788C394.215 149.8 394.285 149.754 394.297 149.68C394.309 149.607 394.263 149.537 394.189 149.525L394.192 149.517Z" fill="#6F5320"/>
<path fill-rule="evenodd" clip-rule="evenodd" d="M394.361 149.865C393.52 149.783 392.699 149.606 391.887 149.379C390.668 149.043 389.478 148.583 388.328 148.063C386.416 147.255 384.527 146.351 382.719 145.316C380.909 144.278 379.179 143.108 377.581 141.773C377.548 141.744 377.501 141.75 377.472 141.78C377.443 141.813 377.449 141.859 377.479 141.889C379.052 143.277 380.761 144.498 382.554 145.591C384.347 146.685 386.224 147.646 388.128 148.511C389.111 148.932 390.12 149.323 391.154 149.61C392.193 149.896 393.257 150.078 394.338 150.131C394.41 150.136 394.474 150.083 394.482 150.006C394.487 149.934 394.434 149.87 394.357 149.862L394.361 149.865Z" fill="#6F5320"/>
<path fill-rule="evenodd" clip-rule="evenodd" d="M395.537 149.841C395.61 149.814 395.672 149.805 395.738 149.76C396.235 149.444 396.595 148.951 396.996 148.516C398.765 146.59 400.271 144.406 401.459 142.068C402.937 139.159 403.876 135.988 404.391 132.762C404.405 132.696 404.364 132.633 404.294 132.62C404.228 132.606 404.166 132.65 404.152 132.716C403.452 135.855 402.221 138.846 400.714 141.685C399.511 143.952 398.1 146.096 396.5 148.098C396.139 148.552 395.699 148.947 395.412 149.452C395.375 149.519 395.367 149.58 395.343 149.652C395.291 149.707 395.292 149.789 395.347 149.841C395.401 149.893 395.484 149.892 395.536 149.837L395.537 149.841Z" fill="#6F5320"/>
<path fill-rule="evenodd" clip-rule="evenodd" d="M396.202 148.83C396.565 148.368 396.925 147.91 397.246 147.414C398.506 145.459 399.425 143.255 400.127 140.997C400.741 139.022 401.195 136.985 401.328 134.944C401.385 134.055 401.347 133.171 401.294 132.293C401.295 132.107 401.146 131.961 400.959 131.96C400.773 131.959 400.626 132.108 400.625 132.294C400.573 133.146 400.449 133.996 400.347 134.855C400.116 136.825 399.801 138.81 399.262 140.746C398.644 142.966 397.753 145.097 396.747 147.13C396.487 147.654 396.252 148.176 395.978 148.687C395.94 148.75 395.956 148.83 396.017 148.873C396.08 148.911 396.16 148.894 396.203 148.834L396.202 148.83Z" fill="#6F5320"/>
<path fill-rule="evenodd" clip-rule="evenodd" d="M414.541 165.349C414.541 165.349 417.455 155.443 428.42 150.573C442.095 144.502 449.315 159.286 435.79 165.065C426.491 169.037 414.54 165.345 414.54 165.345L414.541 165.349Z" fill="#EEA43A"/>
<path fill-rule="evenodd" clip-rule="evenodd" d="M414.536 165.339C414.536 165.339 407.48 157.289 408.781 145.387C410.405 130.548 426.721 132.924 424.923 147.476C423.686 157.481 414.536 165.339 414.536 165.339Z" fill="#EEA43A"/>
<path fill-rule="evenodd" clip-rule="evenodd" d="M414.719 165.475C414.719 165.475 412.644 155.074 419.985 145.459C429.144 133.465 442.387 143.522 433.225 155.177C426.925 163.191 414.719 165.475 414.719 165.475Z" fill="#F5C879"/>
<path fill-rule="evenodd" clip-rule="evenodd" d="M414.858 165.03C414.94 164.911 415.029 164.825 415.092 164.693C415.313 164.233 415.401 163.721 415.548 163.233C416.307 160.774 417.175 158.399 418.259 156.132C419.072 154.428 420.006 152.789 421.086 151.203C421.792 150.165 422.529 149.139 423.382 148.153C423.427 148.105 423.427 148.03 423.377 147.981C423.328 147.936 423.253 147.935 423.204 147.985C422.23 148.882 421.329 149.803 420.534 150.801C419.307 152.342 418.298 154.004 417.453 155.747C416.337 158.047 415.497 160.499 414.871 163.045C414.75 163.544 414.568 164.04 414.549 164.557C414.544 164.704 414.58 164.819 414.598 164.966C414.581 165.036 414.628 165.109 414.695 165.127C414.766 165.144 414.84 165.097 414.858 165.03Z" fill="#6F5320"/>
<path fill-rule="evenodd" clip-rule="evenodd" d="M415.19 164.898C415.279 164.848 415.355 164.816 415.428 164.75C415.689 164.518 415.861 164.202 416.062 163.912C416.635 163.086 417.132 162.205 417.675 161.37L423.636 152.128C423.658 152.099 423.654 152.061 423.625 152.039C423.597 152.017 423.558 152.021 423.536 152.05C422.56 153.164 421.61 154.289 420.741 155.479C419.441 157.261 418.293 159.146 417.106 161.014L414.977 164.733C414.93 164.79 414.943 164.874 415.001 164.921C415.058 164.968 415.142 164.955 415.19 164.898Z" fill="#6F5320"/>
<path fill-rule="evenodd" clip-rule="evenodd" d="M414.87 165.167C414.942 165.231 414.929 165.261 415.025 165.285C415.408 165.391 415.808 165.107 416.182 164.927C417.078 164.492 417.895 163.755 418.613 163.207C419.297 162.667 420.002 162.153 420.67 161.596C421.122 161.218 421.563 160.823 421.968 160.392L426.132 155.45C426.171 155.411 426.169 155.344 426.129 155.305C426.089 155.266 426.022 155.268 425.983 155.307L421.594 160.023C421.19 160.423 420.751 160.786 420.305 161.135C419.623 161.667 418.911 162.166 418.219 162.685C417.628 163.139 416.952 163.713 416.24 164.157C415.829 164.412 415.355 164.494 414.973 164.731C414.896 164.779 414.906 164.828 414.841 164.897C414.767 164.904 414.714 164.974 414.726 165.047C414.733 165.12 414.803 165.173 414.876 165.162L414.87 165.167Z" fill="#6F5320"/>
<path fill-rule="evenodd" clip-rule="evenodd" d="M414.355 164.142C414.351 164.048 414.366 163.969 414.347 163.879C414.222 163.166 413.99 162.448 413.917 161.682C413.796 160.4 413.835 159.069 413.87 157.885C413.919 155.328 414.234 152.7 414.813 150.136C415.273 148.09 415.953 146.105 416.734 144.19C416.934 143.703 417.117 143.215 417.33 142.736C417.362 142.678 417.339 142.608 417.281 142.577C417.223 142.545 417.152 142.568 417.121 142.626C416.843 143.078 416.569 143.53 416.331 144.005C415.391 145.882 414.745 147.931 414.246 150.001C413.623 152.598 413.316 155.271 413.256 157.87C413.239 159.078 413.202 160.44 413.366 161.74C413.466 162.541 413.537 163.375 413.928 164.033C413.977 164.117 414.044 164.17 414.11 164.244C414.141 164.312 414.219 164.344 414.284 164.314C414.353 164.284 414.384 164.207 414.355 164.142Z" fill="#6F5320"/>
<path fill-rule="evenodd" clip-rule="evenodd" d="M414.164 164.485C413.774 163.736 413.469 162.954 413.214 162.154C412.829 160.955 412.562 159.711 412.366 158.468C411.997 156.432 411.72 154.362 411.6 152.286C411.479 150.206 411.513 148.126 411.756 146.062C411.763 146.021 411.731 145.98 411.69 145.973C411.649 145.966 411.608 145.998 411.6 146.039C411.296 148.112 411.21 150.207 411.273 152.298C411.338 154.393 411.56 156.483 411.879 158.546C412.067 159.597 412.291 160.652 412.618 161.67C412.947 162.695 413.378 163.68 413.929 164.608C413.966 164.672 414.046 164.695 414.11 164.662C414.174 164.625 414.197 164.545 414.163 164.481L414.164 164.485Z" fill="#6F5320"/>
<path fill-rule="evenodd" clip-rule="evenodd" d="M414.826 165.443C414.891 165.489 414.932 165.532 415.002 165.565C415.54 165.805 416.148 165.837 416.735 165.932C419.323 166.352 421.981 166.406 424.595 166.117C427.848 165.755 431.023 164.797 434.012 163.455C434.075 163.43 434.104 163.361 434.079 163.299C434.054 163.237 433.985 163.208 433.922 163.233C430.907 164.371 427.719 164.988 424.512 165.285C421.951 165.523 419.376 165.524 416.823 165.29C416.245 165.236 415.667 165.087 415.089 165.128C415.011 165.132 414.958 165.163 414.883 165.183C414.809 165.17 414.739 165.216 414.727 165.29C414.715 165.364 414.761 165.433 414.835 165.445L414.826 165.443Z" fill="#6F5320"/>
<path fill-rule="evenodd" clip-rule="evenodd" d="M416.037 165.437C416.622 165.486 417.207 165.538 417.8 165.53C420.133 165.509 422.485 165.065 424.762 164.412C426.755 163.841 428.716 163.102 430.499 162.093C431.275 161.652 431.995 161.136 432.702 160.61C432.855 160.511 432.899 160.305 432.799 160.148C432.7 159.994 432.493 159.95 432.335 160.05C431.591 160.473 430.811 160.836 430.032 161.222C428.252 162.109 426.411 162.936 424.495 163.55C422.293 164.256 420.016 164.68 417.755 164.955C417.175 165.024 416.608 165.114 416.028 165.166C415.953 165.166 415.894 165.226 415.894 165.301C415.894 165.376 415.953 165.435 416.029 165.435L416.037 165.437Z" fill="#6F5320"/>
<path fill-rule="evenodd" clip-rule="evenodd" d="M28.1033 129.912C28.1033 129.912 35.8096 112.955 57.9348 115.211C80.0601 117.467 86.1461 99.2999 69.8245 96.9369C53.5087 94.5739 35.6967 109.405 28.0977 129.912H28.1033Z" fill="#215138"/>
<path fill-rule="evenodd" clip-rule="evenodd" d="M40.1404 104.099C40.1404 104.099 47.8467 87.1422 69.9719 89.3983C92.0972 91.6544 98.1832 73.4874 81.8616 71.1244C65.5458 68.7614 47.7338 83.592 40.1348 104.099H40.1404Z" fill="#215138"/>
<path fill-rule="evenodd" clip-rule="evenodd" d="M37.3272 111.188C37.3272 111.188 46.7949 95.1361 31.563 78.1731C16.3311 61.2102 27.7861 45.8057 39.6024 57.9188C51.4187 70.032 49.821 93.2007 37.3272 111.188Z" fill="#215138"/>
<path fill-rule="evenodd" clip-rule="evenodd" d="M52.5986 75.7481C52.5986 75.7481 51.3396 60.1917 54.4616 48.523C56.5788 40.6182 64.4714 31.2449 69.8912 31.8244C84.2141 33.3547 77.1402 58.8414 52.5986 75.7537V75.7481Z" fill="#215138"/>
<path fill-rule="evenodd" clip-rule="evenodd" d="M60.3532 56.5234C59.9976 56.726 59.783 56.726 59.5064 57.0185C59.2297 57.3055 59.1394 57.7218 58.9757 58.0819C56.5368 63.4155 54.8487 69.0755 52.2743 74.3472C49.1466 80.8511 45.5447 87.1524 42.3098 93.6225C40.9097 96.4244 39.5886 99.26 38.3804 102.141C35.6084 108.813 32.9776 115.492 30.1999 122.108C28.5344 126.069 26.7278 129.956 24.9608 133.889C24.0179 135.982 23.0582 138.053 22.1549 140.174C21.9234 140.714 21.7484 141.254 21.5339 141.8C21.4209 141.997 21.4943 142.244 21.6863 142.351C21.8839 142.463 22.1323 142.39 22.2452 142.193C22.6235 141.704 23.0017 141.237 23.3574 140.731C24.7462 138.711 25.9487 136.595 27.1004 134.452C27.7158 133.304 28.2634 132.123 28.828 130.947C33.1808 121.843 36.8279 112.476 40.808 103.148C41.6041 101.257 42.4566 99.4006 43.326 97.544C46.8376 90.0611 50.8234 82.7696 54.2616 75.2643C56.6723 69.8687 58.4732 64.2313 60.4549 58.6726C60.5847 58.3069 60.8105 57.9525 60.8275 57.5643C60.8444 57.1592 60.6863 57.0129 60.596 56.6191C60.6242 56.5516 60.596 56.4784 60.5282 56.4503C60.4605 56.4222 60.3871 56.4503 60.3589 56.5178L60.3532 56.5234Z" fill="#AC984A"/>
<path fill-rule="evenodd" clip-rule="evenodd" d="M27.3193 128.912C27.3193 128.912 33.0722 113.659 17.9532 101.22C2.83416 88.7801 10.3485 73.7919 21.9333 82.5407C33.5182 91.2838 35.3474 111.544 27.3193 128.912Z" fill="#215138"/>
<path fill-rule="evenodd" clip-rule="evenodd" d="M47.277 92.595C47.4576 92.4937 47.627 92.4375 47.7964 92.3137C49.1344 91.3291 50.2353 90.0463 51.5168 88.938C53.5944 87.1432 55.768 85.416 58.1448 83.9194C61.9387 81.5395 66.1503 79.6716 70.8757 78.7321C73.5856 78.1075 76.3859 77.7812 79.2313 77.6181C82.0371 77.4662 84.8882 77.4774 87.7449 77.6068C87.8126 77.6124 87.8747 77.5618 87.8804 77.4943C87.8917 77.4268 87.8352 77.3649 87.7675 77.3593C84.3236 76.9373 80.8798 76.6616 77.4924 76.7235C75.1608 76.7685 72.8573 76.9823 70.6047 77.3705C65.7043 78.3382 61.3007 80.223 57.377 82.7154C54.9437 84.2682 52.6685 86.018 50.6305 87.9759C49.3828 89.1686 48.0617 90.3051 47.1697 91.7398C47.0568 91.9198 47.0116 92.0943 46.9326 92.2856C46.8479 92.3812 46.8536 92.5218 46.9495 92.6062C47.0455 92.6906 47.1866 92.685 47.2713 92.5894L47.277 92.595Z" fill="#AA974A"/>
<path fill-rule="evenodd" clip-rule="evenodd" d="M31.8895 59.7113C32.0589 60.0433 32.1887 60.3752 32.3806 60.6959C33.1202 61.9618 33.9671 63.1321 34.6671 64.3698C36.8068 68.1112 38.3481 72.0158 39.4941 75.9767C41.2048 81.9067 42.0065 87.9661 42.0742 93.8173C42.0742 93.9805 42.2041 94.1155 42.3678 94.1155C42.5315 94.1155 42.667 93.9861 42.6726 93.8173C42.8194 87.8873 42.3734 81.676 40.6967 75.6391C39.5732 71.577 37.8851 67.5936 35.5817 63.8353C34.8196 62.592 34.063 61.3148 33.0638 60.2008C32.8154 59.9195 32.5331 59.6945 32.2508 59.4357C32.1718 59.3344 32.0306 59.3175 31.929 59.3907C31.8274 59.4638 31.8104 59.6101 31.8895 59.7113Z" fill="#AA974A"/>
<path fill-rule="evenodd" clip-rule="evenodd" d="M36.033 117.071C36.2024 117.037 36.321 117.054 36.4734 116.981C37.563 116.469 38.3647 115.541 39.2962 114.877C41.9101 113.015 44.5015 111.479 47.1154 110.258C51.2141 108.345 55.3298 107.146 59.5076 106.477C61.365 106.168 63.2337 105.987 65.108 105.83C67.9252 105.594 70.7537 105.459 73.5991 105.459C73.7572 105.464 73.8927 105.34 73.8927 105.183C73.8983 105.025 73.7741 104.896 73.616 104.89C71.2279 104.716 68.8455 104.581 66.463 104.626C64.0692 104.677 61.6868 104.913 59.31 105.267C55.0249 105.937 50.7568 107.101 46.5621 109.087C43.8805 110.359 41.2101 111.94 38.6187 113.965C37.6985 114.686 36.575 115.288 35.8975 116.306C35.8016 116.452 35.8016 116.57 35.7395 116.733C35.6435 116.818 35.6378 116.959 35.7169 117.054C35.7959 117.15 35.9427 117.155 36.0387 117.077L36.033 117.071Z" fill="#AA974A"/>
<path fill-rule="evenodd" clip-rule="evenodd" d="M17.2499 87.0689C17.4024 87.2545 17.5153 87.4402 17.679 87.6146C19.0509 89.083 20.4341 90.5233 21.6027 92.1493C22.9407 94.0228 24.1546 95.9639 25.2272 97.8149C27.2935 101.224 28.5694 105.613 29.2921 110.063C30.0486 114.66 30.2123 119.329 29.7211 123.15C29.7042 123.245 29.772 123.341 29.8679 123.352C29.9639 123.369 30.0599 123.307 30.0712 123.206C30.822 119.358 31.0535 114.598 30.4889 109.889C29.9244 105.23 28.5751 100.65 26.5031 97.061C25.1482 94.8161 23.7085 92.3406 21.8116 90.242C20.5583 88.8636 19.1074 87.6934 17.5209 86.7032C17.4193 86.63 17.2725 86.6469 17.1935 86.7482C17.1201 86.8494 17.1427 86.9957 17.2443 87.0689H17.2499Z" fill="#AA974A"/>
<path fill-rule="evenodd" clip-rule="evenodd" d="M427.771 320.035C427.771 320.035 426.899 311.225 436.549 306.911C446.2 302.598 444.371 293.674 437.086 296.568C429.802 299.461 426.005 309.789 427.769 320.036L427.771 320.035Z" fill="#215138"/>
<path fill-rule="evenodd" clip-rule="evenodd" d="M426.572 306.548C426.572 306.548 425.7 297.738 435.35 293.425C445 289.111 443.172 280.187 435.886 283.082C428.603 285.975 424.806 296.303 426.569 306.55L426.572 306.548Z" fill="#215138"/>
<path fill-rule="evenodd" clip-rule="evenodd" d="M427.103 310.134C427.103 310.134 427.173 301.28 416.852 297.903C406.532 294.526 407.574 285.468 415.33 287.657C423.087 289.845 427.957 299.766 427.103 310.134Z" fill="#215138"/>
<path fill-rule="evenodd" clip-rule="evenodd" d="M424.937 291.922C424.937 291.922 420.707 285.813 419.209 280.268C418.194 276.51 419.209 270.78 421.579 269.734C427.843 266.971 431.011 279.143 424.939 291.924L424.937 291.922Z" fill="#215138"/>
<path fill-rule="evenodd" clip-rule="evenodd" d="M423.545 282.167C423.447 282.335 423.359 282.386 423.314 282.572C423.269 282.755 423.331 282.948 423.35 283.135C423.618 285.91 424.273 288.641 424.471 291.422C424.734 294.842 424.754 298.29 424.966 301.722C425.058 303.207 425.19 304.688 425.38 306.161C425.83 309.566 426.34 312.94 426.775 316.323C427.034 318.349 427.218 320.378 427.428 322.416C427.539 323.501 427.638 324.582 427.772 325.669C427.806 325.946 427.863 326.21 427.904 326.486C427.905 326.594 427.994 326.678 428.099 326.677C428.207 326.676 428.292 326.587 428.291 326.48C428.33 326.188 428.375 325.906 428.4 325.614C428.49 324.453 428.481 323.297 428.444 322.141C428.423 321.522 428.367 320.906 428.319 320.288C427.94 315.507 427.207 310.785 426.62 306C426.497 305.033 426.405 304.066 426.32 303.096C425.981 299.182 425.883 295.235 425.508 291.329C425.213 288.536 424.61 285.787 424.1 283.028C424.066 282.847 424.074 282.647 423.989 282.483C423.899 282.313 423.799 282.29 423.668 282.149C423.663 282.114 423.634 282.091 423.6 282.096C423.565 282.1 423.542 282.129 423.546 282.163L423.545 282.167Z" fill="#AC984A"/>
<path fill-rule="evenodd" clip-rule="evenodd" d="M427.214 319.808C427.214 319.808 425.944 312.163 416.749 310.623C407.555 309.082 407.073 301.129 413.932 301.987C420.789 302.843 426.376 310.753 427.214 319.808Z" fill="#215138"/>
<path fill-rule="evenodd" clip-rule="evenodd" d="M426.766 300.122C426.816 300.038 426.872 299.974 426.913 299.883C427.229 299.161 427.376 298.371 427.639 297.611C428.067 296.38 428.55 295.153 429.172 293.974C430.166 292.095 431.455 290.328 433.177 288.821C434.144 287.922 435.22 287.124 436.353 286.382C437.472 285.655 438.649 284.984 439.856 284.36C439.885 284.346 439.899 284.311 439.885 284.282C439.874 284.251 439.836 284.239 439.806 284.253C438.287 284.895 436.803 285.598 435.423 286.426C434.473 286.997 433.576 287.631 432.741 288.324C430.953 289.884 429.59 291.704 428.568 293.66C427.937 294.876 427.417 296.136 427.045 297.425C426.816 298.212 426.543 298.993 426.518 299.795C426.514 299.896 426.537 299.979 426.55 300.076C426.538 300.136 426.574 300.192 426.634 300.204C426.693 300.216 426.75 300.181 426.762 300.121L426.766 300.122Z" fill="#AA974A"/>
<path fill-rule="evenodd" clip-rule="evenodd" d="M412.588 290.225C412.737 290.321 412.87 290.427 413.025 290.514C413.632 290.86 414.26 291.141 414.844 291.485C416.618 292.519 418.185 293.762 419.602 295.122C421.721 297.159 423.498 299.464 424.922 301.858C424.961 301.925 425.046 301.95 425.114 301.911C425.181 301.873 425.206 301.787 425.168 301.716C423.814 299.239 422.148 296.787 420.017 294.698C418.585 293.291 416.939 292.05 415.093 291.048C414.482 290.717 413.866 290.37 413.189 290.148C413.019 290.091 412.849 290.065 412.671 290.026C412.614 290.003 412.552 290.029 412.528 290.083C412.504 290.138 412.531 290.202 412.588 290.225Z" fill="#AA974A"/>
<path fill-rule="evenodd" clip-rule="evenodd" d="M427.976 312.869C428.037 312.815 428.09 312.794 428.136 312.728C428.462 312.259 428.571 311.686 428.796 311.192C429.428 309.806 430.129 308.559 430.914 307.437C432.146 305.678 433.555 304.209 435.116 302.944C435.807 302.376 436.534 301.859 437.268 301.35C438.372 300.585 439.504 299.859 440.676 299.185C440.743 299.15 440.769 299.067 440.731 299.002C440.696 298.936 440.614 298.912 440.548 298.947C439.523 299.441 438.509 299.95 437.539 300.533C436.565 301.121 435.64 301.783 434.746 302.492C433.141 303.783 431.661 305.274 430.407 307.086C429.606 308.245 428.884 309.529 428.3 310.978C428.093 311.492 427.773 312.006 427.737 312.586C427.733 312.669 427.761 312.718 427.774 312.8C427.755 312.857 427.786 312.917 427.842 312.937C427.897 312.958 427.959 312.925 427.979 312.87L427.976 312.869Z" fill="#AA974A"/>
<path fill-rule="evenodd" clip-rule="evenodd" d="M413.08 304.956C413.187 304.996 413.278 305.046 413.387 305.079C414.303 305.359 415.216 305.624 416.086 306.017C417.084 306.471 418.047 306.983 418.931 307.491C420.595 308.406 422.168 309.911 423.528 311.573C424.936 313.287 426.118 315.171 426.827 316.861C426.843 316.904 426.894 316.928 426.936 316.91C426.979 316.894 427.004 316.845 426.985 316.801C426.376 315.038 425.335 313.023 423.979 311.217C422.635 309.432 420.986 307.866 419.276 306.878C418.182 306.275 416.999 305.597 415.717 305.182C414.871 304.911 413.995 304.773 413.105 304.741C413.045 304.735 412.989 304.777 412.981 304.837C412.975 304.896 413.019 304.951 413.078 304.957L413.08 304.956Z" fill="#AA974A"/>
<path d="M348.153 303.363C349.028 302.782 383.434 292.497 383.434 292.497L369.682 259.589L367.938 215.233C367.938 215.233 367.063 201.318 356.302 194.07L339.428 176.098C339.428 176.098 335.94 171.168 322.554 173.488L309.174 175.807L315.28 247.412C315.28 247.412 332.589 271.327 340.588 279.299C346.987 285.676 348.153 303.363 348.153 303.363Z" fill="#F08D73"/>
<path d="M198.295 161.632L143.577 237.869L117.363 139.07C119.349 136.615 121.385 135.081 125.958 136.516L126.25 136.615L198.295 161.632Z" fill="#96AAD6"/>
<path d="M295.025 194.546L218.363 155.979L258.54 100.114H258.547L258.863 99.669C261.066 96.9663 263.654 96.6076 266.515 97.9126L295.025 194.546Z" fill="#96AAD6"/>
<path d="M295.028 194.541L143.578 237.87L198.296 161.633L211.099 166.08L218.366 155.975L295.028 194.541Z" fill="#96AAD6"/>
<path d="M218.317 156.747L218.037 157.299L294.697 195.872L294.977 195.32L218.317 156.747Z" fill="black"/>
<path d="M197.583 162.284L142.857 238.518L143.867 239.237L198.593 163.004L197.583 162.284Z" fill="black"/>
<path d="M266.516 97.9114C263.656 96.6065 261.068 96.9652 258.865 99.6678L258.548 100.113H258.542L126.25 136.621L125.958 136.522C121.385 135.087 119.349 136.621 117.363 139.076L170.312 61.9977C172.733 58.4725 177.344 57.1985 181.235 58.9796L266.516 97.9114Z" fill="#CADEF8"/>
<path d="M258.54 100.115L218.363 155.98L211.095 166.086L198.293 161.639L126.248 136.623L258.54 100.115Z" fill="#CADEF8"/>
<path d="M178.553 154.296L329.022 139.422L337.896 246.359L187.427 260.831L178.553 154.296Z" fill="white"/>
<path d="M347.554 215.842L327.298 188.086C327.298 188.086 323.754 183.794 317.424 187.332C317.424 187.332 312.869 190.108 315.649 196.417L327.552 215.849C327.552 215.849 326.795 249.659 340.467 268.331" fill="#F08D73"/>
<path d="M74.0781 258.519V185.813C74.0781 185.813 78.6891 150.605 93.2793 135.298C93.2793 135.298 113.25 111.574 132.445 111.574C132.445 111.574 150.802 108.005 152.416 115.019C152.416 115.019 157.027 123.052 135.902 126.881L127.84 130.325L118.239 141.043L127.84 172.04L139.743 161.322C139.743 161.322 145.155 156.826 150.876 161.706C150.876 161.706 155.487 166.301 152.031 170.89L132.445 193.853L113.628 234.418V258.142L74.0781 258.525V258.519Z" fill="#F08D73"/>
<path d="M120.625 169.316C120.47 169.316 120.315 169.26 120.197 169.143C119.949 168.908 119.942 168.518 120.178 168.27L123.785 164.516C124.021 164.269 124.412 164.263 124.66 164.498C124.908 164.733 124.915 165.123 124.679 165.37L121.072 169.124C120.948 169.254 120.787 169.316 120.625 169.316Z" fill="black"/>
<path d="M198.99 172.456C199.785 172.392 201.299 172.298 203.533 172.176C206.009 172.089 207.877 171.995 209.143 171.896C210.173 171.815 211.415 171.658 212.873 171.43C213.866 171.296 214.493 171.221 214.76 171.197C216.379 171.122 217.77 171.29 218.93 171.698C219.265 171.809 219.544 171.955 219.768 172.129C219.991 172.304 220.122 172.613 220.165 173.056C220.221 173.662 220.06 174.198 219.687 174.658C219.315 175.118 218.837 175.369 218.247 175.415C217.602 175.468 216.652 175.462 215.405 175.392C214.3 175.287 213.338 175.264 212.513 175.328C211.688 175.392 211.117 175.456 210.713 175.514C210.713 176.429 210.862 178.614 211.173 182.057C211.545 186.164 212.054 190.318 212.699 194.512L212.898 195.707C212.997 196.837 212.358 197.454 210.98 197.565C209.894 197.652 209.137 197.472 208.715 197.017C208.287 196.569 208.032 195.841 207.946 194.85C207.772 192.893 207.486 190.458 207.108 187.545C206.773 185.127 206.555 183.408 206.462 182.389C206.4 181.701 206.295 179.587 206.152 176.044L201.001 176.499C199.357 176.627 198.196 176.575 197.526 176.336C196.856 176.097 196.471 175.468 196.378 174.448C196.272 173.265 197.141 172.595 198.99 172.45V172.456Z" fill="#314499"/>
<path d="M228.257 172.315C228.313 173.27 228.35 173.992 228.362 174.493C228.4 175.903 228.486 177.313 228.611 178.723C228.704 179.772 228.846 180.855 229.039 181.98C229.839 180.669 230.739 179.678 231.745 179.014C232.75 178.35 234.004 177.96 235.499 177.843C236.585 177.756 237.64 178.129 238.664 178.968C239.688 179.801 240.383 180.814 240.756 182.009C240.942 183.075 241.103 184.38 241.24 185.924C241.327 186.914 241.507 188.207 241.767 189.798C241.879 190.398 242.102 190.951 242.425 191.452C242.754 191.953 243.176 192.187 243.71 192.14C243.976 192.117 244.187 192.087 244.343 192.047C244.504 192.006 244.653 191.983 244.802 191.971C245.211 191.936 245.509 192.012 245.689 192.192C245.869 192.373 245.975 192.641 246.006 193.002C246.068 193.666 245.758 194.191 245.081 194.575C244.405 194.96 243.778 195.181 243.188 195.228C241.072 195.397 239.545 194.686 238.602 193.095C238.075 192.192 237.69 190.998 237.435 189.501C237.181 188.009 236.964 186.256 236.784 184.246C236.604 182.236 235.797 181.327 234.357 181.438C233.563 181.502 232.8 181.956 232.061 182.807C231.323 183.657 230.752 184.741 230.336 186.069C229.926 187.392 229.777 188.743 229.901 190.124L230.336 194.424C230.392 195.03 230.181 195.496 229.709 195.828C229.237 196.16 228.778 196.34 228.338 196.375C227.692 196.428 227.09 196.288 226.525 195.956C225.961 195.624 225.663 195.228 225.619 194.756C225.638 192.67 225.427 189.204 224.993 184.351C224.912 183.471 224.546 180.209 223.888 174.569L223.41 170.777C223.354 170.171 223.602 169.617 224.149 169.116C224.695 168.615 225.334 168.336 226.066 168.277C226.712 168.225 227.196 168.324 227.512 168.58C227.829 168.831 228.015 169.25 228.071 169.827C228.133 170.544 228.195 171.377 228.251 172.332L228.257 172.315Z" fill="#314499"/>
<path d="M267.778 192.588C267.126 193.054 266.506 193.316 265.916 193.363C264.799 193.45 263.899 193.392 263.217 193.182C262.534 192.973 261.876 192.536 261.256 191.86C260.548 192.553 259.549 193.112 258.258 193.538C256.967 193.957 255.763 194.214 254.646 194.307C252.828 194.452 251.289 194.109 250.029 193.281C248.769 192.454 248.062 191.143 247.9 189.349C247.832 188.58 247.987 187.852 248.366 187.164C248.751 186.483 249.297 185.859 250.017 185.306C250.823 184.712 251.754 184.228 252.816 183.855C253.877 183.477 254.994 183.243 256.167 183.15C256.781 183.104 257.526 183.15 258.401 183.308C259.27 183.459 259.952 183.64 260.449 183.855L260.387 183.191C260.25 181.7 259.779 180.709 258.966 180.202C258.153 179.696 256.893 179.515 255.186 179.649C254.683 179.69 254.206 179.824 253.734 180.057C253.269 180.29 252.741 180.593 252.151 180.971C251.363 181.449 250.606 181.717 249.874 181.775C249.607 181.799 249.346 181.647 249.08 181.321C248.813 180.995 248.67 180.692 248.645 180.418C248.571 179.62 248.912 178.897 249.669 178.257C250.426 177.616 251.345 177.103 252.437 176.724C253.529 176.346 254.51 176.124 255.391 176.054C256.272 175.984 257.296 176.06 258.475 176.287C259.648 176.515 260.629 176.87 261.411 177.365C262.354 178.012 263.117 178.793 263.682 179.701C264.253 180.616 264.588 181.636 264.694 182.766C264.725 183.127 264.743 183.663 264.75 184.385C264.762 185.16 264.793 185.824 264.843 186.378C264.867 186.628 264.867 187.001 264.855 187.502C264.855 188.114 264.867 188.597 264.898 188.959C264.929 189.291 265.085 189.565 265.37 189.774C265.656 189.99 265.972 190.077 266.326 190.054L267.555 189.914C267.877 189.891 268.138 189.978 268.33 190.188C268.529 190.398 268.641 190.666 268.672 190.992C268.728 191.598 268.43 192.134 267.772 192.606L267.778 192.588ZM257.532 190.403C258.364 190.089 259.344 189.553 260.492 188.796C260.567 188.318 260.585 187.694 260.542 186.92C258.86 186.331 257.495 186.081 256.434 186.162C255.23 186.255 254.175 186.553 253.275 187.036C252.375 187.525 251.971 188.294 252.065 189.337C252.114 189.862 252.387 190.281 252.89 190.602C253.393 190.922 253.895 191.062 254.392 191.021C255.652 190.922 256.7 190.712 257.532 190.398V190.403Z" fill="#314499"/>
<path d="M269.467 177.727C269.306 177.558 269.201 177.243 269.157 176.771C269.108 176.247 269.269 175.828 269.641 175.501C270.014 175.175 270.46 175 270.988 174.96C272.018 174.878 272.924 175.053 273.719 175.49C274.513 175.927 275.127 176.573 275.556 177.424C276.102 176.241 276.853 175.397 277.808 174.89C278.77 174.383 280.129 174.062 281.892 173.917C282.599 173.859 283.344 174.004 284.126 174.342C284.908 174.68 285.64 175.117 286.304 175.647C286.857 176.212 287.353 176.929 287.787 177.797C288.222 178.665 288.47 179.457 288.532 180.174C288.569 180.587 288.6 181.263 288.625 182.207C288.656 183.203 288.7 183.99 288.749 184.572C288.923 186.501 289.426 187.654 290.257 188.033C290.381 188.079 290.605 188.132 290.934 188.184C291.263 188.243 291.511 188.307 291.685 188.377C291.852 188.446 291.945 188.563 291.958 188.732C292.045 189.39 291.84 189.955 291.337 190.427C290.834 190.899 290.201 191.161 289.438 191.225C288.29 191.319 287.372 191.097 286.67 190.573C285.969 190.043 285.435 189.198 285.063 188.033C284.877 187.602 284.746 186.961 284.666 186.104C284.622 185.638 284.585 184.875 284.548 183.821C284.56 182.988 284.523 182.102 284.442 181.164C284.362 180.226 283.983 179.376 283.332 178.694C282.68 178.012 281.836 177.709 280.812 177.791C280.198 177.838 279.565 178.065 278.919 178.461C278.274 178.857 277.846 179.317 277.622 179.836C277.256 180.727 277.045 181.619 276.977 182.51C276.778 184.246 276.753 185.901 276.896 187.474C276.933 187.858 277.026 188.604 277.188 189.699L277.244 190.299C277.275 190.614 277.262 190.917 277.212 191.196C277.163 191.476 277.064 191.738 276.908 191.971C276.803 192.093 276.592 192.222 276.275 192.356C275.959 192.49 275.686 192.571 275.456 192.589C275.047 192.624 274.519 192.495 273.867 192.216C273.222 191.936 272.819 191.592 272.664 191.185L272.564 190.608C272.546 190.386 272.546 190.054 272.564 189.606C272.744 187.648 272.769 185.953 272.639 184.52C272.583 183.885 272.521 183.407 272.465 183.075L272.248 181.176C272.198 180.599 271.968 180.051 271.565 179.545C271.162 179.038 270.665 178.583 270.069 178.187C269.821 178.042 269.61 177.884 269.449 177.715L269.467 177.727Z" fill="#314499"/>
<path d="M297.115 190.589C296.687 190.432 296.42 190.239 296.308 190.03C295.886 188.952 295.595 187.519 295.433 185.724C295.135 182.415 294.949 179.724 294.881 177.65C294.775 175.185 294.62 172.826 294.415 170.565C294.353 169.901 294.18 168.946 293.888 167.693C293.838 167.478 293.758 167.082 293.646 166.505C293.534 165.928 293.46 165.398 293.41 164.897C293.354 164.291 293.54 163.79 293.962 163.394C294.384 162.998 294.962 162.77 295.7 162.712C296.29 162.666 296.78 162.8 297.177 163.114C297.574 163.429 297.798 163.877 297.853 164.454C297.934 165.334 298.077 166.575 298.275 168.171C298.468 169.657 298.598 170.769 298.666 171.515C298.741 172.342 298.809 173.449 298.877 174.83C298.89 175.663 298.921 176.269 298.952 176.653C299.064 177.865 299.169 178.873 299.268 179.665C300.261 178.558 301.577 177.248 303.215 175.727C304.854 174.207 306.132 173.135 307.051 172.505C308.025 171.847 308.677 171.503 308.999 171.474C309.614 171.428 310.154 171.509 310.619 171.719C311.085 171.934 311.333 172.272 311.376 172.738C311.42 173.204 311.376 173.583 311.258 173.874C311.134 174.16 310.898 174.457 310.538 174.766L305.872 178.593C306.387 178.745 306.902 179.135 307.417 179.759C307.932 180.382 308.565 181.238 309.31 182.316C310.16 183.551 310.855 184.472 311.401 185.066C311.941 185.66 312.462 185.94 312.965 185.899L314.063 185.771C314.268 185.753 314.461 185.852 314.647 186.056C314.827 186.266 314.938 186.575 314.976 186.988C315.032 187.623 314.746 188.159 314.125 188.596C313.499 189.033 312.773 189.29 311.953 189.354C310.805 189.447 309.756 189.103 308.801 188.334C307.845 187.565 306.902 186.493 305.983 185.124L304.848 183.382C304.364 182.642 304.004 182.118 303.749 181.803C303.501 181.489 303.222 181.291 302.918 181.203L299.635 184.128L300.218 188.62C300.28 189.336 300.131 189.861 299.759 190.198C299.386 190.536 299.014 190.717 298.635 190.746C298.046 190.793 297.537 190.734 297.109 190.577L297.115 190.589Z" fill="#314499"/>
<path d="M225.648 236.766C224.866 236.48 224.27 236.113 223.86 235.659C223.451 235.204 223.227 234.802 223.196 234.441C223.153 233.975 223.296 233.59 223.625 233.305C223.953 233.014 224.369 232.851 224.866 232.81C225.157 232.786 225.449 232.845 225.722 232.99C226.001 233.136 226.157 233.218 226.188 233.247C226.405 233.369 226.622 233.468 226.833 233.55C227.044 233.631 227.274 233.66 227.509 233.643C228.155 233.59 228.645 233.148 228.986 232.32C229.328 231.487 229.619 230.159 229.868 228.336C228.384 226.623 227.118 224.887 226.07 223.139L224.859 221.03C224.68 220.71 224.202 219.882 223.414 218.542C222.625 217.202 221.862 216.02 221.117 215C220.633 214.26 220.385 213.753 220.36 213.48C220.298 212.792 220.509 212.262 220.993 211.889C221.477 211.516 222.054 211.307 222.731 211.248C223.203 211.213 223.569 211.272 223.836 211.429C224.102 211.586 224.419 211.889 224.785 212.332C225.753 213.59 226.858 215.501 228.099 218.065C228.825 219.533 229.396 220.645 229.818 221.403C230.24 222.16 230.737 222.918 231.307 223.681C231.711 222.568 232.176 220.68 232.704 218.03C233.039 216.503 233.318 215.28 233.548 214.359C233.777 213.439 234.044 212.594 234.361 211.819C234.578 211.301 234.876 210.875 235.242 210.543C235.608 210.211 236.043 210.019 236.545 209.984C237.048 209.949 237.594 210.077 238.202 210.374C238.804 210.672 239.127 211.056 239.17 211.528C239.195 211.802 239.121 212.146 238.953 212.548C238.035 215.117 237.234 217.534 236.57 219.795C235.9 222.055 235.292 224.525 234.733 227.205C234.398 228.703 234.032 230.136 233.635 231.499C233.237 232.862 232.952 233.707 232.778 234.022C232.263 234.837 231.655 235.53 230.972 236.101C230.283 236.672 229.458 236.993 228.49 237.068C227.373 237.156 226.423 237.057 225.648 236.777V236.766Z" fill="#314499"/>
<path d="M260.557 214.33C260.768 215.046 260.905 215.699 260.954 216.276C261.054 217.353 260.942 218.903 260.619 220.925C258.907 224.56 256.07 226.535 252.105 226.85C250.634 226.966 249.095 226.628 247.488 225.842C245.88 225.055 244.726 224.088 244.031 222.952C243.026 220.645 242.492 219.177 242.436 218.542C242.337 217.441 242.486 216.246 242.889 214.965C243.292 213.683 243.845 212.559 244.558 211.586C244.999 210.91 245.849 210.298 247.097 209.739C248.35 209.18 249.505 208.859 250.56 208.778C252.614 208.615 254.395 208.842 255.903 209.454C257.405 210.071 258.72 211.155 259.831 212.699C260.098 213.066 260.34 213.607 260.557 214.33ZM256.573 216.876C256.499 216.078 256.275 215.303 255.897 214.557C255.518 213.811 255.009 213.182 254.376 212.681C254.314 212.629 254.14 212.553 253.867 212.448C253.594 212.343 253.222 212.25 252.756 212.163C252.291 212.075 251.763 212.052 251.174 212.098C249.529 212.227 248.381 212.943 247.73 214.248C247.078 215.547 246.824 216.986 246.966 218.559C246.991 218.833 247.121 219.352 247.351 220.109C247.581 220.866 247.767 221.338 247.897 221.525C248.003 221.711 248.257 221.962 248.654 222.276C249.051 222.591 249.536 222.859 250.1 223.08C250.665 223.302 251.242 223.383 251.832 223.337C253.154 223.232 254.184 222.853 254.922 222.195C255.661 221.536 256.219 220.697 256.604 219.666C256.716 219.299 256.71 218.367 256.573 216.881V216.876Z" fill="#314499"/>
<path d="M269.645 210.841C269.67 211.144 269.701 211.82 269.738 212.874C269.788 214.092 269.844 215.047 269.906 215.735C270.08 217.663 270.502 219.201 271.166 220.343C271.408 220.716 271.805 220.984 272.37 221.165C272.935 221.339 273.406 221.415 273.785 221.386C274.374 221.339 274.852 221.235 275.218 221.066C275.584 220.897 275.926 220.664 276.242 220.361C276.553 220.058 276.857 219.731 277.148 219.37C277.651 218.747 277.955 218.048 278.048 217.279C278.141 216.51 278.148 215.49 278.061 214.214C277.986 213.416 277.961 212.641 277.986 211.89C278.054 210.661 278.036 209.525 277.943 208.476C277.893 207.899 278.017 207.392 278.315 206.967C278.619 206.542 279.091 206.303 279.736 206.25C280.059 206.227 280.456 206.297 280.934 206.466C281.406 206.635 281.728 206.839 281.896 207.078C282.132 207.392 282.274 207.841 282.33 208.418C282.361 208.779 282.349 209.111 282.287 209.42C282.175 209.845 282.15 210.375 282.206 211.01C282.237 211.342 282.318 211.89 282.442 212.659C282.585 213.23 282.678 213.818 282.734 214.424C282.901 216.271 283.168 217.622 283.547 218.485C283.956 219.399 284.471 220.186 285.092 220.862C285.731 221.392 286.166 221.782 286.395 222.027C286.625 222.272 286.749 222.493 286.768 222.685C286.799 223.017 286.65 223.349 286.327 223.676C286.004 224.008 285.651 224.188 285.266 224.217C284.18 224.305 283.199 224.025 282.33 223.39C281.461 222.749 280.785 221.899 280.301 220.821C280.009 221.205 279.625 221.683 279.14 222.248C278.656 222.813 278.197 223.279 277.757 223.646C276.683 224.509 275.249 225.01 273.456 225.155C272.724 225.214 271.904 225.068 270.998 224.724C270.092 224.38 269.261 223.897 268.497 223.279C267.734 222.662 267.182 221.974 266.847 221.223C266.809 221.17 266.71 220.955 266.542 220.582C266.375 220.209 266.257 219.632 266.189 218.863L265.549 212.251C265.512 211.867 265.357 211.267 265.078 210.457C264.854 209.921 264.724 209.513 264.699 209.239C264.656 208.773 264.792 208.371 265.103 208.039C265.413 207.707 265.847 207.52 266.406 207.48C268.342 207.328 269.422 208.447 269.639 210.847L269.645 210.841Z" fill="#314499"/>
<path d="M296.082 220.097C296.144 220.813 295.964 221.489 295.53 222.118C295.101 222.747 294.518 223.097 293.779 223.155C292.898 223.225 292.154 223.027 291.552 222.561C290.95 222.095 290.614 221.518 290.552 220.831C290.497 220.225 290.689 219.654 291.13 219.118C291.57 218.582 292.154 218.285 292.892 218.227C294.89 218.069 295.952 218.693 296.076 220.097H296.082ZM293.854 205.783C293.928 208.556 294.028 210.671 294.164 212.133C294.201 212.517 294.301 213.315 294.468 214.521C294.481 214.993 294.338 215.36 294.034 215.617C293.73 215.879 293.364 216.024 292.923 216.059C292.451 216.094 292.017 216.019 291.614 215.832C291.21 215.64 290.95 215.372 290.832 215.022C290.273 212.791 289.857 210.105 289.572 206.959L289.032 200.504C288.939 199.485 289.001 198.64 289.224 197.97C289.442 197.3 290.025 196.927 290.962 196.852C291.756 196.788 292.365 196.986 292.787 197.434C293.209 197.889 293.457 198.483 293.525 199.229C293.662 200.72 293.767 202.905 293.854 205.783Z" fill="#314499"/>
<path d="M340.189 301.003L354.59 343C357.362 351.083 364.964 356.512 373.509 356.512H393.624C407.927 356.512 417.607 341.934 412.057 328.752L391.715 280.438L340.189 301.003Z" fill="#EE2737"/>
<mask id="mask0_1478_57082" style="mask-type:luminance" maskUnits="userSpaceOnUse" x="341" y="279" width="60" height="36">
<path d="M350.202 289.958C343.768 292.146 340.194 299.008 342.09 305.534V305.534C343.667 310.962 348.64 314.696 354.293 314.696H385.385C396.623 314.696 403.827 302.743 398.578 292.806L395.882 287.704C392.457 281.22 384.829 278.186 377.887 280.546L350.202 289.958Z" fill="white"/>
</mask>
<g mask="url(#mask0_1478_57082)">
<path d="M414.735 304.893C393.547 290.159 338.029 299.189 337.471 299.283L337.365 298.712C337.924 298.619 393.703 289.542 415.107 304.427L414.735 304.893Z" fill="#FAEDD9"/>
<path d="M417.26 317.258C396.073 302.525 340.555 311.555 339.996 311.648L339.891 311.077C340.449 310.984 396.228 301.907 417.632 316.792L417.26 317.258Z" fill="#FAEDD9"/>
</g>
<path d="M65.0197 251.602C65.0197 251.602 109.525 243.54 120.141 250.362L122.981 331.808C123.452 345.31 112.633 356.513 99.1224 356.513H84.8018C71.1407 356.513 60.2656 345.07 60.9595 331.427L65.0197 251.602Z" fill="#EE2737"/>
<mask id="mask1_1478_57082" style="mask-type:luminance" maskUnits="userSpaceOnUse" x="61" y="263" width="63" height="94">
<path d="M65.9981 266.28C65.9981 266.28 109.785 261.204 120.229 265.499L123.844 356.513H61.1777L65.9981 266.28Z" fill="white"/>
</mask>
<g mask="url(#mask1_1478_57082)">
<path d="M129.964 289.152C112.109 270.935 55.778 269.991 55.207 269.979V269.396C55.7842 269.402 112.382 270.352 130.417 288.756L129.957 289.152H129.964Z" fill="#FAEDD9"/>
<path d="M129.964 301.746C112.109 283.528 55.778 282.585 55.207 282.579V281.996C55.7842 282.002 112.382 282.952 130.417 301.355L129.957 301.752L129.964 301.746Z" fill="#FAEDD9"/>
</g>
<path d="M103.589 170.345C103.465 170.345 103.34 170.308 103.235 170.233C102.956 170.036 102.887 169.652 103.08 169.374C106.549 164.439 107.095 149.274 107.101 149.126C107.114 148.841 107.312 148.606 107.585 148.544C111.979 147.573 122.635 135.482 122.746 135.359C122.97 135.099 123.367 135.074 123.621 135.303C123.882 135.526 123.907 135.922 123.677 136.175C123.243 136.67 113.301 147.951 108.324 149.62C108.206 152.267 107.467 165.292 104.098 170.085C103.98 170.258 103.787 170.351 103.589 170.351V170.345Z" fill="black"/>
<path d="M114.936 160.05C114.78 160.05 114.625 159.994 114.507 159.876C114.259 159.641 114.253 159.246 114.489 159.004L120.62 152.622C120.856 152.375 121.247 152.368 121.495 152.603C121.743 152.838 121.75 153.234 121.514 153.475L115.382 159.858C115.258 159.988 115.097 160.05 114.936 160.05Z" fill="black"/>
<path d="M109.134 186.327C108.625 186.327 108.134 186.271 107.663 186.16C105.168 185.573 104.169 183.631 104.125 183.55C103.97 183.247 104.094 182.876 104.405 182.722C104.709 182.567 105.081 182.691 105.236 182.994C105.267 183.062 106.043 184.521 107.973 184.96C110.145 185.461 113 184.447 116.227 182.035C124.977 175.498 130.563 167.773 130.618 167.699C130.817 167.421 131.202 167.359 131.487 167.557C131.767 167.755 131.829 168.145 131.63 168.417C131.574 168.497 125.883 176.364 116.978 183.025C114.042 185.22 111.411 186.327 109.14 186.327H109.134Z" fill="black"/>
<path d="M108.773 179.441C108.513 179.441 108.271 179.274 108.184 179.014C104.621 168.005 96.8516 166.83 96.7771 166.818C96.4358 166.768 96.2 166.459 96.2434 166.119C96.2869 165.779 96.6096 165.544 96.9447 165.587C97.2922 165.637 105.565 166.886 109.369 178.624C109.474 178.952 109.295 179.298 108.972 179.403C108.91 179.422 108.841 179.434 108.779 179.434L108.773 179.441Z" fill="black"/>
<path d="M107.701 150.07C107.534 150.07 107.372 150.002 107.248 149.872C104.195 146.619 101.123 145.89 101.092 145.883C100.757 145.809 100.546 145.475 100.627 145.141C100.701 144.807 101.036 144.603 101.365 144.671C101.508 144.702 104.822 145.469 108.154 149.019C108.39 149.266 108.378 149.662 108.123 149.891C108.005 150.002 107.85 150.058 107.701 150.058V150.07Z" fill="black"/>
<path d="M126.921 131.091C126.753 131.091 126.579 131.023 126.461 130.887C125.002 129.273 123.804 127.362 122.892 125.21C122.762 124.894 122.904 124.529 123.221 124.399C123.537 124.27 123.904 124.412 124.034 124.727C124.891 126.756 126.014 128.549 127.38 130.058C127.61 130.312 127.591 130.702 127.33 130.93C127.212 131.036 127.063 131.091 126.914 131.091H126.921Z" fill="black"/>
<path d="M345.932 275.916C345.795 275.916 345.659 275.872 345.547 275.786C339.887 271.333 336.133 263.8 333.973 258.271C331.646 252.303 330.634 247.3 330.622 247.25C330.554 246.916 330.771 246.588 331.106 246.52C331.447 246.452 331.77 246.669 331.838 247.003C331.876 247.201 335.878 266.602 346.317 274.808C346.584 275.019 346.633 275.408 346.422 275.68C346.298 275.835 346.118 275.916 345.932 275.916Z" fill="black"/>
<path d="M349.507 221.027C349.308 221.027 349.109 220.928 348.991 220.749L332.031 195.392C331.838 195.107 331.919 194.724 332.204 194.532C332.49 194.341 332.875 194.421 333.067 194.705L350.028 220.062C350.22 220.347 350.14 220.73 349.854 220.922C349.749 220.99 349.631 221.027 349.513 221.027H349.507Z" fill="black"/>
</svg>
