<svg width="1022" height="234" viewBox="0 0 1022 234" fill="none" xmlns="http://www.w3.org/2000/svg">
    <rect y="30" width="1022" height="204" rx="10" fill="#FAEDD9"/>
    <mask id="k2qss0mz4a" style="mask-type:alpha" maskUnits="userSpaceOnUse" x="669" y="207" width="252" height="11">
        <path fill-rule="evenodd" clip-rule="evenodd" d="M920.482 207.875H669V218h251.482v-10.125z" fill="#fff"/>
    </mask>
    <g mask="url(#k2qss0mz4a)">
        <path fill-rule="evenodd" clip-rule="evenodd" d="M668.999 212.937c0 2.796 56.297 5.063 125.742 5.063 69.445 0 125.741-2.267 125.741-5.063s-56.296-5.062-125.741-5.062-125.742 2.266-125.742 5.062" fill="#181822" style="mix-blend-mode:multiply" opacity=".165"/>
    </g>
    <path fill-rule="evenodd" clip-rule="evenodd" d="m878.141 140.659.831 1.143 21.844-16.073-.831-1.143-21.844 16.073z" fill="#5B1321"/>
    <path fill-rule="evenodd" clip-rule="evenodd" d="M686.991 184.981c0 15.805 12.729 28.617 28.431 28.617 15.701 0 28.43-12.812 28.43-28.617 0-15.805-12.729-28.618-28.43-28.618-15.702 0-28.431 12.813-28.431 28.618" fill="#474746"/>
    <path fill-rule="evenodd" clip-rule="evenodd" d="M691.225 184.984c0 13.451 10.833 24.354 24.196 24.354 13.363 0 24.196-10.903 24.196-24.354 0-13.452-10.833-24.355-24.196-24.355-13.363 0-24.196 10.903-24.196 24.355" fill="#6E6D6C"/>
    <path fill-rule="evenodd" clip-rule="evenodd" d="M697.652 184.98c0 9.878 7.956 17.886 17.77 17.886 9.813 0 17.769-8.008 17.769-17.886s-7.956-17.886-17.769-17.886c-9.814 0-17.77 8.008-17.77 17.886" fill="#8C8989"/>
    <path fill-rule="evenodd" clip-rule="evenodd" d="M706.48 184.981c0 4.573 3.683 8.281 8.227 8.281 4.543 0 8.227-3.708 8.227-8.281 0-4.574-3.684-8.282-8.227-8.282-4.544 0-8.227 3.708-8.227 8.282M838.397 184.981c0 15.805 12.729 28.617 28.43 28.617 15.702 0 28.431-12.812 28.431-28.617 0-15.805-12.729-28.618-28.431-28.618-15.701 0-28.43 12.813-28.43 28.618" fill="#474746"/>
    <path fill-rule="evenodd" clip-rule="evenodd" d="M842.631 184.984c0 13.451 10.833 24.354 24.196 24.354 13.363 0 24.196-10.903 24.196-24.354 0-13.452-10.833-24.355-24.196-24.355-13.363 0-24.196 10.903-24.196 24.355" fill="#6E6D6C"/>
    <path fill-rule="evenodd" clip-rule="evenodd" d="M849.055 184.98c0 9.878 7.956 17.886 17.77 17.886 9.813 0 17.769-8.008 17.769-17.886s-7.956-17.886-17.769-17.886c-9.814 0-17.77 8.008-17.77 17.886" fill="#8C8989"/>
    <path fill-rule="evenodd" clip-rule="evenodd" d="M858.599 184.981c0 4.573 3.683 8.281 8.227 8.281 4.544 0 8.227-3.708 8.227-8.281 0-4.574-3.683-8.282-8.227-8.282-4.544 0-8.227 3.708-8.227 8.282" fill="#474746"/>
    <path fill-rule="evenodd" clip-rule="evenodd" d="M869.266 132.672h-2.488v-7.332h2.488v7.332zM855.842 132.672h-2.488v-7.332h2.488v7.332z" fill="#5B1321"/>
    <path fill-rule="evenodd" clip-rule="evenodd" d="M840.527 109.653c-3.485 6.03-3.581 12.765-23.431 13.799-18.9.985-26.019 4.263-33.704 3.511-5.527-.541-7.355-14.539.25-15.1 8.689-.642 33.276-2.34 33.276-2.34l23.609.13z" fill="#062338"/>
    <path fill-rule="evenodd" clip-rule="evenodd" d="m793.896 125.24-15.867 52.437-12.49-.219s14.452-56.539 15.929-61.962c4.918 1.981 12.428 9.744 12.428 9.744" fill="#B08900"/>
    <path fill-rule="evenodd" clip-rule="evenodd" d="M806.671 127.362s57.908 1.101 62.096 1.284c4.188.182 5.406 1.081 4.917 2.749-.301 1.028-.238 2.13 1.662 4.273 1.56 1.759 4.576 4.8 6.55 6.448 5.157 4.305-39.194 35.143-41.358 37.003-4.486 3.854-7.987 6.827-7.987 6.827s-65.577.071-72.68.071c-7.102 0-31.505-25.855-34.667-39.925 11.832-6.573 17.257-21.543 19.753-27.238 2.496-5.695 10.049-25.778 10.663-28.124.613-2.346 5.765-.865 3.557 4.198-2.208 5.062-10.795 28.769-12.021 33.955-1.227 5.185-1.473 11.976 2.576 20.496 4.048 8.519 13.125 20.25 15.088 22.472 1.962 2.222 6.379 3.58 12.267 3.58h28.212c4.785 0 16.118-9.128 16.561-20.126.735-18.273-15.189-27.943-15.189-27.943" fill="#DC202F"/>
    <path fill-rule="evenodd" clip-rule="evenodd" d="M907.316 177.556s-2.482-28.451-28.825-38.045c-19.476-7.092-40.266 1.901-47.422 19.759-4.665 11.64-1.263 24.491-.089 27.349 11.646 2.363 67.822-2.365 76.336-9.063" fill="#EE2737"/>
    <path fill-rule="evenodd" clip-rule="evenodd" d="M755.657 185.844h79.2c1.149 0 2.081.938 2.081 2.095a2.088 2.088 0 0 1-2.081 2.094h-79.2a2.089 2.089 0 0 1-2.081-2.094c0-1.157.933-2.095 2.081-2.095" fill="#E50042"/>
    <path fill-rule="evenodd" clip-rule="evenodd" d="M839.355 128.489c5.676-.175 6.157-6.494.338-6.772-5.818-.277-35.517 2.163-37.808 2.342-2.292.178-2.18 4.348.827 4.383 5.077.059 29.387.271 36.643.047" fill="#711B2E"/>
    <path fill-rule="evenodd" clip-rule="evenodd" d="M849.027 83.02h56.222c.445 0 .806.363.806.811v40.897h-57.834V83.831c0-.448.36-.812.806-.812" fill="#EE2737"/>
    <path fill-rule="evenodd" clip-rule="evenodd" d="M906.055 89.773v34.955H848.22V110.98c32.522 7.21 50.085-2.044 57.835-21.207" fill="#DC202F"/>
    <path d="M877.479 82.363v42.252" stroke="#711B2E" stroke-width="2.898" stroke-linecap="round"/>
    <path fill-rule="evenodd" clip-rule="evenodd" d="M846.875 126.925h61.554c.899 0 1.63-.735 1.63-1.64 0-.906-.731-1.64-1.63-1.64h-61.554c-.9 0-1.63.734-1.63 1.64 0 .905.73 1.64 1.63 1.64" fill="#711B2E"/>
    <path fill-rule="evenodd" clip-rule="evenodd" d="M745.871 87.34v15.221c-3.905-.499-3.905-14.722 0-15.221" fill="#92D5F7"/>
    <path fill-rule="evenodd" clip-rule="evenodd" d="M753.668 94.95a7.618 7.618 0 0 1-5.938 7.443V87.508a7.618 7.618 0 0 1 5.938 7.442" fill="#E50042"/>
    <path fill-rule="evenodd" clip-rule="evenodd" d="M746.082 87.316c.567 0 1.115.073 1.647.192v14.886a7.519 7.519 0 0 1-1.647.192c-.072 0-.14-.015-.21-.024V87.341c.07-.01.138-.025.21-.025" fill="#A1A1A1"/>
    <path fill-rule="evenodd" clip-rule="evenodd" d="M804.691 173.477s-9.161.969-10.577 1.255c-1.417.285-17.131 4.703-17.131 8.826 1.676 0 7.498.002 15.657.002 4.986 0 15.677.517 17.118-.002.434-.156 1.327-1.554.618-2.952-1.284-2.53-4.805-7.169-5.685-7.129" fill="#fff"/>
    <path fill-rule="evenodd" clip-rule="evenodd" d="M809.758 185.802h-32.775v-2.247h32.775v2.247z" fill="#2F3043"/>
    <path fill-rule="evenodd" clip-rule="evenodd" d="m809.719 50.944 7.918-5.787-6.217-8.618-7.918 5.787 6.217 8.618zM792.677 86.544c-2.624 1.053-12.412 5.167-27.686 4.617-1.722-.738-9.096-1.303-9.096-1.303s1.054-2.084 4.083-2.278c6.407-.412 9.935-1.158 14.976-1.782 6.203-.767 10.617-2.365 14.086-3.84 2.537-1.08 6.89-4.29 6.89-4.29l5.066 4.964s-2.883 1.73-8.319 3.912" fill="#F4A67B"/>
    <path fill-rule="evenodd" clip-rule="evenodd" d="M823.744 49.046c-3.712-2.143-8.218-.609-11.593 6.727-3.377 7.337-8.164 15.33-17.612 20.478.833 4.109 6.756 7.28 6.756 7.28s14.147-6.053 18.933-14.097c6.253-10.51 7.229-18.245 3.516-20.388" fill="#BC3D57"/>
    <path fill-rule="evenodd" clip-rule="evenodd" d="M840.527 109.656c-.102 6.256-3.581 12.765-23.431 13.799-18.9.985-30.619 1.26-38.303.508-5.527-.54-7.356-14.539.249-15.1 8.69-.641 33.277-2.34 33.277-2.34l28.208 3.133z" fill="#FEC500"/>
    <path fill-rule="evenodd" clip-rule="evenodd" d="m790.128 120.466 14.63 52.8-12.579 1.791s-16.083-50.71-17.734-56.081c5.206-.992 15.683 1.49 15.683 1.49" fill="#FEC500"/>
    <path fill-rule="evenodd" clip-rule="evenodd" d="M840.527 109.656c.015-6.672-3.802-34.808-7.545-46.193-3.791-11.535-10.477-21.548-17.845-19.36-12.069 3.584-7.981 17.7-7.326 28.078.654 10.377 4.508 34.342 4.508 34.342s13.002 2.968 28.208 3.133" fill="#EE2737"/>
    <path fill-rule="evenodd" clip-rule="evenodd" d="M788.164 89.783c-2.532 1.157-5.014 5.917-26.392 4.164-3.19.245-7.642-.815-7.642-.815s.275-5.328 4.825-5.035c2.92.188 7.413 1.035 12.251.428 5.954-.747 10.21-2.492 13.559-4.119 2.45-1.189 6.676-4.797 6.676-4.797l4.76 5.845s-2.793 1.932-8.037 4.33" fill="#FFC2A1"/>
    <path fill-rule="evenodd" clip-rule="evenodd" d="M818.603 47.19c-3.515-2.559-7.859-.889-11.226 7.506-3.369 8.394-8.099 17.515-17.241 23.245.722 4.763 6.335 8.556 6.335 8.556s13.658-6.669 18.39-15.85c6.181-11.99 7.258-20.9 3.742-23.458" fill="#FF8E75"/>
    <path fill-rule="evenodd" clip-rule="evenodd" d="M814.007 39.77s-15.586 11.155-20.242 7.451c-.702-.557-2.648-5.628-3.847-9.328-1.771-5.465-3.14-12.684-2.164-17.623 1.615-8.163 10.045-19.936 17.874-17.776 7.827 2.16 25.724 11.596 8.379 37.275" fill="#FFC2A1"/>
    <path fill-rule="evenodd" clip-rule="evenodd" d="M791.338 26.78c.012-.01.018-.013.035-.024l-.472-.983c-1.921 2.515-4.27 4.377-6.404 6.33 4.98 4.227 9.437-.218 7.957-5.685-.459.043-.884.238-1.116.362-.26.175-.223.12 0 0" fill="#FFC2A1"/>
    <mask id="rvl3tk1g6b" style="mask-type:alpha" maskUnits="userSpaceOnUse" x="782" y="1" width="45" height="41">
        <path fill-rule="evenodd" clip-rule="evenodd" d="M809.03 1.516c5.068.83 9.328 2.559 13.76 8.057s3.614 13.548 1.675 18.073c-1.991 4.65-6.008 9.964-9.46 13.568-2.882-1.119-4.357-8.89-5.321-12.69-1.909-3.21-5.211-1.282-6.504-3.828-.509-1.003-.661-2.669-.715-4.537-5.479 2.631-17.576 1.896-19.927-7.023 1.144 2.11 4.337 3.501 4.337 3.501s-6.672-5.324-.286-9.88c-1.811 4.796.81 7.146.81 7.146s-.286-1.63.858-3.021c.093 2.514 1.573 2.206 3.779-.728 2.206-2.933 2.996-4.696 5.796-6.38 2.395-1.44 4.802-2.52 8.17-2.52.93 0 1.933.083 3.028.262" fill="#fff"/>
    </mask>
    <g mask="url(#rvl3tk1g6b)">
        <path fill-rule="evenodd" clip-rule="evenodd" d="M809.03 1.516c5.068.83 9.328 2.559 13.76 8.057s3.614 13.548 1.675 18.073c-1.991 4.65-6.008 9.964-9.46 13.568-2.882-1.119-4.357-8.89-5.321-12.69-1.909-3.21-5.211-1.282-6.504-3.828-.509-1.003-.661-2.669-.715-4.537-5.479 2.631-17.576 1.896-19.927-7.023 1.144 2.11 4.337 3.501 4.337 3.501s-6.672-5.324-.286-9.88c-1.811 4.796.81 7.146.81 7.146s-.286-1.63.858-3.021c.093 2.514 1.573 2.206 3.779-.728 2.206-2.933 2.996-4.696 5.796-6.38 2.395-1.44 4.802-2.52 8.17-2.52.93 0 1.933.083 3.028.262" fill="url(#kjpb7rz63c)"/>
    </g>
    <path fill-rule="evenodd" clip-rule="evenodd" d="M810.634 26.693c-.635 2.62-3.217 5.52-4.927 5.1-1.711-.42-2.584-2.883-1.951-5.503.635-2.618 2.322-5.976 4.564-5.29 1.683.517 2.948 3.074 2.314 5.693" fill="#FFC2A1"/>
    <mask id="s54ruhe82d" style="mask-type:alpha" maskUnits="userSpaceOnUse" x="789" y="21" width="6" height="7">
        <path fill-rule="evenodd" clip-rule="evenodd" d="M794.451 22.261s1.164 5.052-2.109 4.918c-3.273-.132-2.985-4.357-2.879-5.53 1.495.088 4.988.612 4.988.612" fill="#fff"/>
    </mask>
    <g mask="url(#s54ruhe82d)">
        <path fill-rule="evenodd" clip-rule="evenodd" d="M794.451 22.261s1.164 5.052-2.109 4.918c-3.273-.132-2.985-4.357-2.879-5.53 1.495.088 4.988.612 4.988.612" fill="url(#p5in7bafqe)"/>
    </g>
    <mask id="22c0y3jgaf" style="mask-type:alpha" maskUnits="userSpaceOnUse" x="789" y="21" width="6" height="2">
        <path fill-rule="evenodd" clip-rule="evenodd" d="M793.08 22.752c-3.245.024-4.715-1.278-2.879-1.41.251-.017.497-.026.737-.026 3.121 0 5.155 1.412 2.142 1.436" fill="#fff"/>
    </mask>
    <g mask="url(#22c0y3jgaf)">
        <path fill-rule="evenodd" clip-rule="evenodd" d="M793.08 22.752c-3.245.024-4.715-1.278-2.879-1.41.251-.017.497-.026.737-.026 3.121 0 5.155 1.412 2.142 1.436" fill="url(#bl0cc9lpmg)"/>
    </g>
    <path d="M793.361 26.76c-1.026-1.827-3.037-1.017-2.897.578" stroke="#4B2B19" stroke-width=".793"/>
    <path fill-rule="evenodd" clip-rule="evenodd" d="m791.076 175.81 14.382-1.926a.91.91 0 0 0 .778-1.023l-.384-2.903a.907.907 0 0 0-1.016-.782l-14.382 1.927a.909.909 0 0 0-.777 1.022l.384 2.903a.904.904 0 0 0 1.015.782" fill="#D3CCB5"/>
    <path fill-rule="evenodd" clip-rule="evenodd" d="M730.839 146.424c-30.082-10.544-39.495 18.297-39.495 18.297s15.931-3.685 28.102 4.781c13.968 9.716 21.08 17.537 31.569 14.448 2.021-4.442-1.753-31.069-20.176-37.526" fill="#E50042"/>
    <path fill-rule="evenodd" clip-rule="evenodd" d="M753.819 94.47c0 2.297 1.851 4.16 4.133 4.16 2.284 0 4.134-1.862 4.134-4.16 0-2.3-1.85-4.161-4.134-4.161-2.282 0-4.133 1.862-4.133 4.16" fill="#3D3C3C"/>
    <path fill-rule="evenodd" clip-rule="evenodd" d="M755.954 94.468c0 1.11.894 2.01 1.997 2.01 1.104 0 1.998-.9 1.998-2.01 0-1.11-.894-2.011-1.998-2.011-1.103 0-1.997.9-1.997 2.01" fill="#2A2A29"/>
    <path d="m798.404 31.27 7.241-6.817M802.179 42.904l15.569-5.955" stroke="#D4E5EF" stroke-width="1.018"/>
    <mask id="mb58xkxgeh" style="mask-type:alpha" maskUnits="userSpaceOnUse" x="788" y="0" width="39" height="39">
        <path fill-rule="evenodd" clip-rule="evenodd" d="M826.957 0h-37.963v38.676h37.963V0z" fill="#fff"/>
    </mask>
    <g mask="url(#mb58xkxgeh)">
        <path fill-rule="evenodd" clip-rule="evenodd" d="M823.856 34.243s10.584-22.913-7.352-31.846c-17.936-8.934-27.51 9.983-27.51 9.983l14.981 8.128s-.278 2.383-.475 6.03c-.181 3.36.4 9.385 5.914 11.284 6.055 2.086 12.011.147 14.442-3.579" fill="#FFC600"/>
    </g>
    <path fill-rule="evenodd" clip-rule="evenodd" d="M826.773 16.871c1.069 8.735-2.917 17.37-2.917 17.37-2.432 3.725-8.386 5.664-14.441 3.579-5.516-1.9-6.096-7.925-5.915-11.285l.03-.523c8.427 1.148 17.191-1.83 23.243-9.14" fill="#FFC600"/>
    <path d="M823.855 34.242s-3.423 5.777-12.332 4.093c-5.939-1.136-7.988-5.767-7.988-10.145 0-4.378.44-7.684.44-7.684l-14.981-8.127" stroke="#4A3A00" stroke-width="2.063" stroke-linecap="round" stroke-linejoin="round"/>
    <path fill-rule="evenodd" clip-rule="evenodd" d="M787.56 26.71c.323.68 2.144 2.323 4.489 3.39 2.344 1.068 5.644.557 6.928.276 2.623 3.146 4.541 10.947 3.58 13.045-2.365 1.728-6.002 3.103-8.805 3.395a1.776 1.776 0 0 1-1.385-.449c-4.016-3.634-8.208-13.017-8.048-14.3.168-1.349 2.99-3.617 3.241-5.356" fill="#CADEF8"/>
    <path fill-rule="evenodd" clip-rule="evenodd" d="M798.236 31.51c-3.429.431-6.372.084-8.949-1.937-.696-.546-1.365-1.221-2.011-2.03.141-.287.244-.566.282-.832.323.68 2.145 2.323 4.489 3.39 2.345 1.067 5.645.556 6.928.275 2.623 3.146 4.541 10.948 3.58 13.046-2.365 1.727-6.001 3.102-8.803 3.395a1.777 1.777 0 0 1-1.371-.438c1.761-.403 7.365-1.78 9.07-3.34.776-2.603-1.293-9.52-3.215-11.53" fill="#98C1D6"/>
    <path fill-rule="evenodd" clip-rule="evenodd" d="M831.069 159.272c2.438-6.084 6.461-11.136 11.472-14.877-5.533 21.2 26.079 50.152 64.153 29.372.496 2.344.622 3.79.622 3.79-8.514 6.699-64.69 11.427-76.336 9.063-1.174-2.857-4.575-15.708.089-27.348" fill="#DC202F"/>
    <path fill-rule="evenodd" clip-rule="evenodd" d="M867.496 137.171a40.06 40.06 0 0 0-9.145.291c-3.035.446-5.999 1.332-8.844 2.503-.7.318-1.429.58-2.102.958l-2.041 1.093-1.953 1.246c-.332.2-.646.424-.95.663l-.926.7c-2.436 1.901-4.679 4.083-6.554 6.569a36.058 36.058 0 0 0-4.587 8.115c-1.151 2.913-1.841 5.993-2.159 9.096-.316 3.106-.268 6.236.063 9.331.173 1.548.404 3.089.735 4.613.33 1.53.704 3.028 1.283 4.546l.135.354.387.079c1.661.334 3.287.426 4.92.514 1.629.073 3.253.102 4.875.095 3.245-.006 6.481-.112 9.714-.268a306.78 306.78 0 0 0 9.686-.623c3.224-.257 6.446-.543 9.659-.92 6.426-.729 12.838-1.612 19.204-2.778 3.179-.606 6.346-1.282 9.472-2.129 1.559-.439 3.118-.883 4.635-1.458 1.507-.578 3.033-1.198 4.313-2.205-1.322.944-2.864 1.487-4.388 1.99-1.526.517-3.092.907-4.656 1.287-3.138.735-6.315 1.296-9.5 1.791-6.365 1.026-12.775 1.768-19.195 2.358-6.422.57-12.851 1.091-19.289 1.344-3.219.133-6.438.216-9.651.199-3.199-.034-6.454-.097-9.515-.615l.522.432c-.524-1.344-.914-2.828-1.238-4.294a44.5 44.5 0 0 1-.744-4.467c-.341-3.003-.409-6.041-.123-9.044.285-3.001.931-5.969 2.014-8.77 1.124-2.791 2.54-5.467 4.301-7.915 1.765-2.446 3.899-4.612 6.235-6.516l.888-.701c.292-.24.594-.467.913-.668l1.884-1.258 1.975-1.111a9.465 9.465 0 0 1 1.01-.511l1.025-.486c2.75-1.246 5.643-2.223 8.631-2.768a43.435 43.435 0 0 1 9.081-.662" fill="#920F29"/>
    <path fill-rule="evenodd" clip-rule="evenodd" d="M729.594 146.008c.412.132.825.268 1.245.416 18.423 6.456 22.197 33.084 20.176 37.526-8.034 2.365-14.089-1.672-22.76-8.056 7.262-3.024 12.335-15.028 1.339-29.886" fill="#BD0E36"/>
    <path d="M63.468 111.288c2.088 0 3.96-.864 4.968-2.268V111h5.004V84.972h-5.004v9.792c-1.008-1.332-2.772-2.196-5.04-2.196-5.256 0-8.496 3.708-8.496 9.36 0 5.652 3.24 9.36 8.568 9.36zm.828-4.32c-2.664 0-4.428-2.016-4.428-5.04 0-3.06 1.764-5.076 4.428-5.076 2.664 0 4.428 2.016 4.428 5.076 0 3.024-1.764 5.04-4.428 5.04zm21.73 4.32c5.58 0 9.577-3.96 9.577-9.36 0-5.4-3.996-9.36-9.576-9.36s-9.576 3.96-9.576 9.36c0 5.4 3.996 9.36 9.576 9.36zm0-4.32c-2.7 0-4.535-2.052-4.535-5.04 0-3.024 1.836-5.076 4.536-5.076 2.7 0 4.536 2.052 4.536 5.076 0 2.988-1.836 5.04-4.536 5.04zm20.954 4.32c5.58 0 9.576-3.96 9.576-9.36 0-5.4-3.996-9.36-9.576-9.36s-9.576 3.96-9.576 9.36c0 5.4 3.996 9.36 9.576 9.36zm0-4.32c-2.7 0-4.536-2.052-4.536-5.04 0-3.024 1.836-5.076 4.536-5.076 2.7 0 4.536 2.052 4.536 5.076 0 2.988-1.836 5.04-4.536 5.04zm23.941-9.936v-4.176h-2.052c-2.196 0-3.564.756-4.536 3.024v-3.024h-5.04V111h5.04v-8.82c0-3.096 1.116-5.148 3.6-5.148h2.988zm8.531 14.256c4.248 0 7.056-2.268 7.056-5.724 0-8.208-9.936-3.996-9.936-7.704 0-1.152.972-1.764 2.376-1.764 1.368 0 2.772.828 2.988 2.376h4.356c-.18-3.564-3.132-5.904-7.488-5.904-3.708 0-6.48 2.268-6.48 5.472 0 7.632 9.756 3.996 9.756 7.704 0 1.008-1.08 1.764-2.628 1.764-1.872 0-3.132-1.008-3.312-2.628h-4.32c.18 3.924 3.204 6.408 7.632 6.408zm11.778-23.796v4.104c0 .9-.504 1.26-1.26 1.26h-2.232v4.176h3.492v7.38c0 4.212 2.7 6.588 6.876 6.588h2.988v-4.212h-2.304c-1.62 0-2.556-.828-2.556-2.592v-7.164h4.86v-4.176h-4.86v-5.364h-5.004zm24.211 17.352c-.396 1.548-1.728 2.34-3.744 2.34-2.52 0-4.14-1.584-4.5-4.14h13.032c.036-.396.072-.936.072-1.62 0-4.14-2.556-8.856-8.964-8.856-6.156 0-8.964 4.716-8.964 9.324 0 4.572 3.168 9.396 9.324 9.396 4.464 0 7.92-2.52 8.64-6.444h-4.896zm-4.104-8.604c2.412 0 3.816 1.62 3.96 3.636h-8.028c.432-2.52 1.8-3.636 4.068-3.636zm12.017 22.104h5.004v-8.964c.972 1.224 2.736 1.908 4.788 1.908 5.22 0 8.748-3.708 8.748-9.36 0-5.652-3.24-9.36-8.316-9.36-2.34 0-4.14.864-5.22 2.268v-1.98h-5.004v25.488zm9.18-11.376c-2.7 0-4.464-2.016-4.464-5.04 0-3.06 1.764-5.076 4.464-5.076 2.628 0 4.428 2.016 4.428 5.076 0 3.024-1.8 5.04-4.428 5.04zM212.679 111h5.04V95.628L224.127 111h3.996l6.408-15.372V111h5.004V85.8h-6.048l-7.344 17.604-7.38-17.604h-6.084V111zm33.517-20.772c1.656 0 2.952-1.188 2.952-2.844 0-1.62-1.296-2.844-2.952-2.844-1.692 0-2.952 1.224-2.952 2.844 0 1.656 1.26 2.844 2.952 2.844zM243.676 111h5.04V92.856h-5.04V111zm9.187 0h5.4v-10.26h9.36v-4.68h-9.36v-5.616h11.772V85.8h-17.172V111zm22.899-20.772c1.656 0 2.952-1.188 2.952-2.844 0-1.62-1.296-2.844-2.952-2.844-1.692 0-2.952 1.224-2.952 2.844 0 1.656 1.26 2.844 2.952 2.844zM273.242 111h5.04V92.856h-5.04V111zm23.945.288c2.088 0 3.96-.864 4.968-2.268V111h5.004V84.972h-5.004v9.792c-1.008-1.332-2.772-2.196-5.04-2.196-5.256 0-8.496 3.708-8.496 9.36 0 5.652 3.24 9.36 8.568 9.36zm.828-4.32c-2.664 0-4.428-2.016-4.428-5.04 0-3.06 1.764-5.076 4.428-5.076 2.664 0 4.428 2.016 4.428 5.076 0 3.024-1.764 5.04-4.428 5.04zm25.223-2.124c-.396 1.548-1.728 2.34-3.744 2.34-2.52 0-4.14-1.584-4.5-4.14h13.032c.036-.396.072-.936.072-1.62 0-4.14-2.556-8.856-8.964-8.856-6.156 0-8.964 4.716-8.964 9.324 0 4.572 3.168 9.396 9.324 9.396 4.464 0 7.92-2.52 8.64-6.444h-4.896zm-4.104-8.604c2.412 0 3.816 1.62 3.96 3.636h-8.028c.432-2.52 1.8-3.636 4.068-3.636zM331.151 111h5.004V84.972h-5.004V111zm11.478-20.772c1.656 0 2.952-1.188 2.952-2.844 0-1.62-1.296-2.844-2.952-2.844-1.692 0-2.952 1.224-2.952 2.844 0 1.656 1.26 2.844 2.952 2.844zM340.109 111h5.04V92.856h-5.04V111zm13.723 0h4.608l6.624-18.144h-5.148l-3.78 11.736-3.816-11.736h-5.112L353.832 111zm24.566-6.156c-.396 1.548-1.728 2.34-3.744 2.34-2.52 0-4.14-1.584-4.5-4.14h13.032c.036-.396.072-.936.072-1.62 0-4.14-2.556-8.856-8.964-8.856-6.156 0-8.964 4.716-8.964 9.324 0 4.572 3.168 9.396 9.324 9.396 4.464 0 7.92-2.52 8.64-6.444h-4.896zm-4.104-8.604c2.412 0 3.816 1.62 3.96 3.636h-8.028c.432-2.52 1.8-3.636 4.068-3.636zm23.358.792v-4.176H395.6c-2.196 0-3.564.756-4.536 3.024v-3.024h-5.04V111h5.04v-8.82c0-3.096 1.116-5.148 3.6-5.148h2.988zm18.565-4.176h-5.148l-3.78 11.736-3.816-11.736h-5.112l6.552 17.928-.684 1.8c-.468 1.296-1.224 1.836-2.016 1.836h-2.124v3.924h2.664c3.708 0 4.896-1.836 6.084-5.184l.756-2.16 6.624-18.144zM59.616 152.516h2.472l3.936-12.936 3.936 12.936h2.496l5.112-16.8h-2.544l-3.912 13.08-4.008-13.08h-2.16l-4.008 13.08-3.888-13.08H54.48l5.136 16.8zm26.871-3.936c-.336 1.368-1.488 2.136-3.264 2.136-2.112 0-3.6-1.56-3.792-3.84h9.24c.024-.216.048-.6.048-.912 0-3.072-1.992-5.736-5.736-5.736-3.72 0-5.832 2.784-5.832 6.168 0 3.36 2.328 6.312 6.072 6.312 2.976 0 5.16-1.632 5.592-4.128h-2.328zm-3.504-6.48c1.992 0 3.24 1.224 3.384 3.072h-6.864c.36-2.016 1.584-3.072 3.48-3.072zm16.278 10.416h2.16l2.736-9.024 2.76 9.024h2.16l3.744-12.096h-2.352l-2.472 9-2.712-9h-2.208l-2.736 9-2.496-9h-2.328l3.744 12.096zm16.582-14.328c.864 0 1.512-.648 1.512-1.488 0-.816-.648-1.464-1.512-1.464s-1.512.648-1.512 1.464c0 .84.648 1.488 1.512 1.488zm-1.152 14.328h2.328V140.42h-2.328v12.096zm5.394 0h2.328v-17.16h-2.328v17.16zm5.531 0h2.328v-17.16h-2.328v17.16zm16.054.192c1.608 0 3.096-.792 3.816-1.992v1.8h2.328v-17.16h-2.328v6.84c-.72-1.176-2.184-1.968-3.84-1.968-3.696 0-5.784 2.64-5.784 6.24s2.088 6.24 5.808 6.24zm.264-2.04c-2.232 0-3.696-1.68-3.696-4.2 0-2.52 1.464-4.2 3.696-4.2 2.256 0 3.72 1.68 3.72 4.2 0 2.52-1.464 4.2-3.72 4.2zm17.585-2.088c-.336 1.368-1.488 2.136-3.264 2.136-2.112 0-3.6-1.56-3.792-3.84h9.24c.024-.216.048-.6.048-.912 0-3.072-1.992-5.736-5.736-5.736-3.72 0-5.832 2.784-5.832 6.168 0 3.36 2.328 6.312 6.072 6.312 2.976 0 5.16-1.632 5.592-4.128h-2.328zm-3.504-6.48c1.992 0 3.24 1.224 3.384 3.072h-6.864c.36-2.016 1.584-3.072 3.48-3.072zm8.226 10.416h2.328v-17.16h-2.328v17.16zm6.563-14.328c.864 0 1.512-.648 1.512-1.488 0-.816-.648-1.464-1.512-1.464s-1.512.648-1.512 1.464c0 .84.648 1.488 1.512 1.488zm-1.152 14.328h2.328V140.42h-2.328v12.096zm8.49 0h2.304l4.416-12.096h-2.4l-3.192 9.168-3.168-9.168h-2.4l4.44 12.096zm16.697-3.936c-.336 1.368-1.488 2.136-3.264 2.136-2.112 0-3.6-1.56-3.792-3.84h9.24c.024-.216.048-.6.048-.912 0-3.072-1.992-5.736-5.736-5.736-3.72 0-5.832 2.784-5.832 6.168 0 3.36 2.328 6.312 6.072 6.312 2.976 0 5.16-1.632 5.592-4.128h-2.328zm-3.504-6.48c1.992 0 3.24 1.224 3.384 3.072h-6.864c.36-2.016 1.584-3.072 3.48-3.072zm15.114.336v-2.016h-1.464c-1.704 0-2.664.72-3.216 2.328v-2.328h-2.328v12.096h2.328v-5.472c0-2.64.72-4.608 2.928-4.608h1.752zm17.389-2.016h-2.4l-3.192 9.168-3.168-9.168h-2.4l4.464 12.192-.456 1.296c-.432 1.272-.984 1.56-1.584 1.56h-1.32v1.944h1.488c1.944 0 2.808-1.176 3.528-3.144l.624-1.752 4.416-12.096zm6.882 12.288c3.624 0 6.216-2.616 6.216-6.24s-2.592-6.24-6.216-6.24-6.241 2.616-6.241 6.24 2.617 6.24 6.241 6.24zm0-2.04c-2.304 0-3.865-1.728-3.865-4.2 0-2.472 1.561-4.2 3.865-4.2 2.28 0 3.84 1.728 3.84 4.2 0 2.472-1.56 4.2-3.84 4.2zm19.223-10.248h-2.328v6.552c0 2.112-1.344 3.648-3.24 3.648-1.704 0-2.832-1.296-2.832-3.216v-6.984h-2.328v7.44c0 2.88 1.776 4.848 4.512 4.848 1.8 0 3.24-.816 3.888-2.328v2.136h2.328V140.42zm9.991 2.016v-2.016h-1.464c-1.704 0-2.664.72-3.216 2.328v-2.328h-2.328v12.096h2.328v-5.472c0-2.64.72-4.608 2.928-4.608h1.752zm7.668 10.08h2.376v-12.504l5.016 12.504h2.04l5.016-12.504v12.504h2.376v-16.8h-3.048l-5.352 13.392-5.352-13.392h-3.072v16.8zm21.163-14.328c.864 0 1.512-.648 1.512-1.488 0-.816-.648-1.464-1.512-1.464s-1.512.648-1.512 1.464c0 .84.648 1.488 1.512 1.488zm-1.152 14.328h2.328V140.42h-2.328v12.096zm5.489 0h2.496v-7.368h6.696v-2.208h-6.696v-5.016h8.28v-2.208h-10.776v16.8zm14.296-14.328c.864 0 1.512-.648 1.512-1.488 0-.816-.648-1.464-1.512-1.464s-1.512.648-1.512 1.464c0 .84.648 1.488 1.512 1.488zm-1.152 14.328h2.328V140.42h-2.328v12.096zm15.917.192c1.608 0 3.096-.792 3.816-1.992v1.8h2.328v-17.16h-2.328v6.84c-.72-1.176-2.184-1.968-3.84-1.968-3.696 0-5.785 2.64-5.785 6.24s2.089 6.24 5.809 6.24zm.264-2.04c-2.232 0-3.697-1.68-3.697-4.2 0-2.52 1.465-4.2 3.697-4.2 2.256 0 3.72 1.68 3.72 4.2 0 2.52-1.464 4.2-3.72 4.2zm17.584-2.088c-.336 1.368-1.488 2.136-3.264 2.136-2.112 0-3.6-1.56-3.792-3.84h9.24c.024-.216.048-.6.048-.912 0-3.072-1.992-5.736-5.736-5.736-3.72 0-5.832 2.784-5.832 6.168 0 3.36 2.328 6.312 6.072 6.312 2.976 0 5.16-1.632 5.592-4.128h-2.328zm-3.504-6.48c1.992 0 3.24 1.224 3.384 3.072h-6.864c.36-2.016 1.584-3.072 3.48-3.072zm10.9 10.416h2.304l4.416-12.096h-2.4l-3.192 9.168-3.168-9.168h-2.4l4.44 12.096zm9.631-14.328c.864 0 1.512-.648 1.512-1.488 0-.816-.648-1.464-1.512-1.464s-1.512.648-1.512 1.464c0 .84.648 1.488 1.512 1.488zm-1.152 14.328h2.328V140.42h-2.328v12.096zm10.578.192c3.072 0 5.232-1.728 5.616-4.272h-2.304c-.384 1.368-1.608 2.232-3.264 2.232-2.4 0-3.624-1.872-3.624-4.2 0-2.328 1.2-4.2 3.624-4.2 1.632 0 3.024 1.008 3.24 2.376h2.328c-.336-2.736-2.784-4.416-5.616-4.416-3.816 0-6 2.904-6 6.24 0 3.336 2.184 6.24 6 6.24zm16.461-4.128c-.336 1.368-1.488 2.136-3.264 2.136-2.112 0-3.6-1.56-3.792-3.84h9.24c.024-.216.048-.6.048-.912 0-3.072-1.992-5.736-5.736-5.736-3.72 0-5.832 2.784-5.832 6.168 0 3.36 2.328 6.312 6.072 6.312 2.976 0 5.16-1.632 5.592-4.128h-2.328zm-3.504-6.48c1.992 0 3.24 1.224 3.384 3.072h-6.864c.36-2.016 1.584-3.072 3.48-3.072zM60.24 166.228c-2.856 0-5.016 1.776-5.208 4.152h2.16c.072-1.224 1.296-2.28 2.976-2.28 1.872 0 2.928 1.008 2.928 2.472 0 .432-.264.72-.816.72h-2.52c-2.856 0-4.704 1.44-4.704 3.768 0 2.16 1.632 3.648 4.104 3.648 1.824 0 3.36-.864 3.936-2.16v1.968h2.328v-7.8c0-2.688-2.064-4.488-5.184-4.488zm-.624 10.632c-1.344 0-2.256-.744-2.256-1.848 0-1.272 1.032-2.088 2.616-2.088h3.12v.288c0 2.232-1.272 3.648-3.48 3.648zm8.505 1.656h2.328v-6.552c0-2.112 1.344-3.648 3.24-3.648 1.704 0 2.832 1.296 2.832 3.216v6.984h2.328v-7.44c0-2.88-1.776-4.848-4.512-4.848-1.8 0-3.24.816-3.888 2.328v-2.136H68.12v12.096zm18.823.192c1.608 0 3.096-.792 3.816-1.992v1.8h2.328v-17.16H90.76v6.84c-.72-1.176-2.184-1.968-3.84-1.968-3.696 0-5.784 2.64-5.784 6.24s2.088 6.24 5.808 6.24zm.264-2.04c-2.232 0-3.696-1.68-3.696-4.2 0-2.52 1.464-4.2 3.696-4.2 2.256 0 3.72 1.68 3.72 4.2 0 2.52-1.464 4.2-3.72 4.2zm20.163 2.04c3.6 0 6.192-1.8 6.192-4.872 0-6.408-9.576-3.696-9.576-7.776 0-1.416 1.224-2.328 3.24-2.328 2.064 0 3.408 1.128 3.576 2.856h2.424c-.216-3.072-2.568-5.064-6-5.064-3.384 0-5.736 1.848-5.736 4.536 0 6.192 9.528 3.768 9.528 7.8 0 1.824-1.536 2.64-3.648 2.64-2.376 0-3.792-1.392-3.984-3.552h-2.424c.192 3.48 2.616 5.76 6.408 5.76zm8.708-.192h2.496v-16.8h-2.496v16.8zm5.906 0h2.376v-12.504l5.016 12.504h2.04l5.016-12.504v12.504h2.376v-16.8h-3.048l-5.352 13.392-5.352-13.392h-3.072v16.8z" fill="#2F3043"/>
    <defs>
        <linearGradient id="kjpb7rz63c" x1="826.027" y1="41.214" x2="782.539" y2="41.214" gradientUnits="userSpaceOnUse">
            <stop/>
            <stop offset="1" stop-color="#78605D"/>
        </linearGradient>
        <linearGradient id="p5in7bafqe" x1="794.387" y1="22.209" x2="794.193" y2="27.082" gradientUnits="userSpaceOnUse">
            <stop stop-color="#C99169"/>
            <stop offset="1" stop-color="#C99169"/>
        </linearGradient>
        <linearGradient id="bl0cc9lpmg" x1="796.502" y1="22.072" x2="795.779" y2="24.478" gradientUnits="userSpaceOnUse">
            <stop stop-color="#4F3025"/>
            <stop offset="1" stop-color="#3B211D"/>
        </linearGradient>
    </defs>
</svg>
