<svg xmlns="http://www.w3.org/2000/svg" xmlns:xlink="http://www.w3.org/1999/xlink" width="338" height="293" viewBox="0 0 338 293">
    <defs>
        <path id="1uxaboqdza" d="M0 0.384L337.307 0.384 337.307 13.922 0 13.922z"/>
        <path id="x5hile2q8c" d="M23.694 1.04C16.897 2.15 11.184 4.462 5.24 11.814-.705 19.164.392 29.929 2.992 35.979c2.671 6.217 8.058 13.323 12.689 18.142 3.865-1.496 5.844-11.888 7.137-16.968 2.56-4.291 6.989-1.714 8.723-5.118.682-1.341.887-3.569.96-6.067 7.349 3.518 23.574 2.535 26.726-9.39-1.534 2.822-5.816 4.681-5.816 4.681s8.948-7.118.383-13.211c2.43 6.414-1.087 9.556-1.087 9.556s.384-2.18-1.15-4.04c-.124 3.362-2.11 2.95-5.069-.973C43.53 8.67 42.47 6.31 38.714 4.06 35.502 2.134 32.274.69 27.756.69c-1.247 0-2.592.111-4.062.35"/>
        <path id="zjkqsxqx3f" d="M.703.936S-.858 7.689 3.531 7.51C7.922 7.334 7.536 1.685 7.394.116 5.388.234.703.936.703.936"/>
        <path id="8czodeabdi" d="M2.54 2.52C6.894 2.552 8.865.81 6.404.636 6.066.612 5.735.6 5.413.6 1.227.6-1.5 2.488 2.54 2.52"/>
        <path id="yjmwwnqs3l" d="M0.575 0.872L51.493 0.872 51.493 52.585 0.575 52.585z"/>
        <linearGradient id="rg86bcmaod" x1="0%" x2="99.999%" y1="49.999%" y2="49.999%">
            <stop offset="0%"/>
            <stop offset="100%" stop-color="#78605D"/>
        </linearGradient>
        <linearGradient id="mrmjcvauhg" x1="49.185%" x2="52.202%" y1="8.463%" y2="96.554%">
            <stop offset="0%" stop-color="#C99169"/>
            <stop offset="100%" stop-color="#C99169"/>
        </linearGradient>
        <linearGradient id="f3bdqnx1hj" x1="4.473%" x2="95.579%" y1="46.694%" y2="53.184%">
            <stop offset="0%" stop-color="#4F3025"/>
            <stop offset="100%" stop-color="#3B211D"/>
        </linearGradient>
    </defs>
    <g fill="none" fill-rule="evenodd">
        <g>
            <g>
                <g>
                    <g>
                        <g>
                            <g transform="translate(-807 -1114) translate(208 1114) translate(599) matrix(-1 0 0 1 338 0) translate(0 3.67) translate(0 274.823)">
                                <mask id="tlxoze9ekb" fill="#fff">
                                    <use xlink:href="#1uxaboqdza"/>
                                </mask>
                                <path fill="#181822" d="M337.307 7.152c0 3.739-75.51 6.77-168.654 6.77C75.51 13.922 0 10.891 0 7.152 0 3.414 75.51.384 168.653.384c93.145 0 168.654 3.03 168.654 6.768" mask="url(#tlxoze9ekb)" opacity=".16" style="mix-blend-mode:multiply"/>
                            </g>
                            <path fill="#5B1321" d="M56.793 185.329L55.678 186.858 26.379 165.368 27.494 163.839z" transform="translate(-807 -1114) translate(208 1114) translate(599) matrix(-1 0 0 1 338 0) translate(0 3.67)"/>
                            <path fill="#474746" d="M313.175 244.596c0 21.132-17.073 38.263-38.133 38.263-21.06 0-38.133-17.131-38.133-38.263 0-21.134 17.073-38.265 38.133-38.265 21.06 0 38.133 17.131 38.133 38.265" transform="translate(-807 -1114) translate(208 1114) translate(599) matrix(-1 0 0 1 338 0) translate(0 3.67)"/>
                            <path fill="#6E6D6C" d="M307.496 244.596c0 17.985-14.53 32.564-32.454 32.564s-32.454-14.58-32.454-32.564c0-17.986 14.53-32.565 32.454-32.565s32.454 14.579 32.454 32.565" transform="translate(-807 -1114) translate(208 1114) translate(599) matrix(-1 0 0 1 338 0) translate(0 3.67)"/>
                            <path fill="#8C8989" d="M298.876 244.596c0 13.207-10.671 23.915-23.834 23.915s-23.834-10.708-23.834-23.915c0-13.208 10.671-23.916 23.834-23.916s23.834 10.708 23.834 23.916" transform="translate(-807 -1114) translate(208 1114) translate(599) matrix(-1 0 0 1 338 0) translate(0 3.67)"/>
                            <path fill="#474746" d="M287.037 244.596c0 6.114-4.942 11.072-11.036 11.072-6.094 0-11.034-4.958-11.034-11.072 0-6.116 4.94-11.074 11.034-11.074s11.036 4.958 11.036 11.074M110.102 244.596c0 21.132-17.073 38.263-38.133 38.263-21.06 0-38.133-17.131-38.133-38.263 0-21.134 17.072-38.265 38.133-38.265 21.06 0 38.133 17.131 38.133 38.265" transform="translate(-807 -1114) translate(208 1114) translate(599) matrix(-1 0 0 1 338 0) translate(0 3.67)"/>
                            <path fill="#6E6D6C" d="M104.422 244.596c0 17.985-14.53 32.564-32.454 32.564-17.923 0-32.453-14.58-32.453-32.564 0-17.986 14.53-32.565 32.453-32.565 17.924 0 32.454 14.579 32.454 32.565" transform="translate(-807 -1114) translate(208 1114) translate(599) matrix(-1 0 0 1 338 0) translate(0 3.67)"/>
                            <path fill="#8C8989" d="M95.802 244.596c0 13.207-10.67 23.915-23.833 23.915-13.163 0-23.834-10.708-23.834-23.915 0-13.208 10.67-23.916 23.834-23.916 13.163 0 23.833 10.708 23.833 23.916" transform="translate(-807 -1114) translate(208 1114) translate(599) matrix(-1 0 0 1 338 0) translate(0 3.67)"/>
                            <path fill="#474746" d="M83.003 244.596c0 6.114-4.94 11.072-11.034 11.072-6.095 0-11.035-4.958-11.035-11.072 0-6.116 4.94-11.074 11.035-11.074 6.094 0 11.034 4.958 11.034 11.074" transform="translate(-807 -1114) translate(208 1114) translate(599) matrix(-1 0 0 1 338 0) translate(0 3.67)"/>
                            <path fill="#5B1321" d="M68.696 174.651L72.033 174.651 72.033 164.847 68.696 164.847zM86.701 174.651L90.039 174.651 90.039 164.847 86.701 164.847z" transform="translate(-807 -1114) translate(208 1114) translate(599) matrix(-1 0 0 1 338 0) translate(0 3.67)"/>
                            <path fill="#062338" d="M107.24 143.877c4.676 8.063 4.805 17.068 31.428 18.45 25.351 1.318 34.9 5.7 45.207 4.695 7.413-.723 9.865-19.44-.336-20.19-11.654-.858-44.631-3.128-44.631-3.128l-31.667.173z" transform="translate(-807 -1114) translate(208 1114) translate(599) matrix(-1 0 0 1 338 0) translate(0 3.67)"/>
                            <path fill="#B08900" d="M169.786 164.716l21.283 70.113 16.752-.293s-19.383-75.598-21.364-82.849c-6.597 2.649-16.67 13.029-16.67 13.029" transform="translate(-807 -1114) translate(208 1114) translate(599) matrix(-1 0 0 1 338 0) translate(0 3.67)"/>
                            <path fill="#DC202F" d="M152.65 167.551s-77.67 1.471-83.287 1.716c-5.618.244-7.25 1.446-6.595 3.676.403 1.374.318 2.848-2.23 5.714-2.091 2.352-6.137 6.418-8.784 8.62-6.918 5.757 52.57 46.99 55.47 49.477 6.018 5.153 10.714 9.128 10.714 9.128s87.957.095 97.483.095c9.526 0 42.257-34.57 46.498-53.383-15.869-8.788-23.146-28.805-26.494-36.42-3.348-7.614-13.478-34.467-14.302-37.603-.822-3.137-7.732-1.157-4.77 5.612 2.961 6.769 14.478 38.467 16.123 45.4 1.646 6.935 1.975 16.014-3.455 27.406-5.43 11.39-17.605 27.076-20.237 30.047-2.632 2.972-8.556 4.787-16.453 4.787H154.49c-6.417 0-21.618-12.205-22.212-26.91-.987-24.432 20.372-37.362 20.372-37.362" transform="translate(-807 -1114) translate(208 1114) translate(599) matrix(-1 0 0 1 338 0) translate(0 3.67)"/>
                            <path fill="#EE2737" d="M17.66 234.667s3.329-38.04 38.661-50.869c26.123-9.482 54.008 2.542 63.606 26.42 6.258 15.564 1.695 32.747.12 36.568-15.62 3.16-90.967-3.162-102.388-12.119" transform="translate(-807 -1114) translate(208 1114) translate(599) matrix(-1 0 0 1 338 0) translate(0 3.67)"/>
                            <path fill="#E50042" d="M221.077 245.747H114.849c-1.541 0-2.79 1.254-2.79 2.8 0 1.547 1.249 2.801 2.79 2.801h106.228c1.54 0 2.791-1.254 2.791-2.8 0-1.547-1.25-2.801-2.791-2.801" transform="translate(-807 -1114) translate(208 1114) translate(599) matrix(-1 0 0 1 338 0) translate(0 3.67)"/>
                            <path fill="#711B2E" d="M108.815 169.061c-7.613-.234-8.258-8.683-.454-9.055 7.804-.37 47.638 2.892 50.711 3.131 3.074.238 2.924 5.815-1.11 5.861-6.809.079-39.415.362-49.147.063" transform="translate(-807 -1114) translate(208 1114) translate(599) matrix(-1 0 0 1 338 0) translate(0 3.67)"/>
                            <path fill="#EE2737" d="M95.84 108.261H20.433c-.597 0-1.081.486-1.081 1.085v54.684h77.57v-54.684c0-.6-.483-1.085-1.08-1.085" transform="translate(-807 -1114) translate(208 1114) translate(599) matrix(-1 0 0 1 338 0) translate(0 3.67)"/>
                            <path fill="#DC202F" d="M19.35 117.293v46.737h77.573v-18.382c-43.621 9.64-67.178-2.734-77.572-28.355" transform="translate(-807 -1114) translate(208 1114) translate(599) matrix(-1 0 0 1 338 0) translate(0 3.67)"/>
                            <path stroke="#711B2E" stroke-linecap="round" stroke-width="2.898" d="M57.678 107.384L57.678 163.878" transform="translate(-807 -1114) translate(208 1114) translate(599) matrix(-1 0 0 1 338 0) translate(0 3.67)"/>
                            <path fill="#711B2E" d="M98.728 166.967H16.166c-1.206 0-2.185-.982-2.185-2.193 0-1.21.98-2.193 2.185-2.193h82.562c1.207 0 2.185.982 2.185 2.193 0 1.21-.978 2.193-2.185 2.193" transform="translate(-807 -1114) translate(208 1114) translate(599) matrix(-1 0 0 1 338 0) translate(0 3.67)"/>
                            <path fill="#92D5F7" d="M234.2 114.042v20.351c5.237-.667 5.237-19.684 0-20.351" transform="translate(-807 -1114) translate(208 1114) translate(599) matrix(-1 0 0 1 338 0) translate(0 3.67)"/>
                            <path fill="#E50042" d="M223.745 124.217c0 4.875 3.411 8.938 7.965 9.953v-19.904c-4.554 1.015-7.965 5.077-7.965 9.951" transform="translate(-807 -1114) translate(208 1114) translate(599) matrix(-1 0 0 1 338 0) translate(0 3.67)"/>
                            <path fill="#A1A1A1" d="M233.919 114.01c-.76 0-1.496.097-2.21.256v19.903c.714.16 1.45.257 2.21.257.096 0 .187-.02.28-.032v-20.352c-.093-.012-.184-.033-.28-.033" transform="translate(-807 -1114) translate(208 1114) translate(599) matrix(-1 0 0 1 338 0) translate(0 3.67)"/>
                            <path fill="#FFF" d="M155.306 229.21s12.287 1.295 14.186 1.677c1.901.382 22.978 6.288 22.978 11.801-2.249 0-10.057.003-21.001.003-6.688 0-21.027.692-22.96-.003-.582-.208-1.779-2.078-.829-3.946 1.722-3.383 6.445-9.587 7.626-9.533" transform="translate(-807 -1114) translate(208 1114) translate(599) matrix(-1 0 0 1 338 0) translate(0 3.67)"/>
                            <path fill="#2F3043" d="M148.51 245.695L192.47 245.695 192.47 242.689 148.51 242.689z" transform="translate(-807 -1114) translate(208 1114) translate(599) matrix(-1 0 0 1 338 0) translate(0 3.67)"/>
                            <path fill="#F4A67B" d="M148.566 65.376L137.946 57.638 146.284 46.115 156.904 53.852zM171.422 112.974c3.52 1.41 16.648 6.91 37.135 6.174 2.31-.987 12.2-1.743 12.2-1.743s-1.414-2.785-5.477-3.045c-8.593-.55-13.325-1.548-20.087-2.382-8.32-1.027-14.24-3.163-18.893-5.136-3.403-1.444-9.24-5.735-9.24-5.735l-6.796 6.636s3.868 2.313 11.158 5.231" transform="translate(-807 -1114) translate(208 1114) translate(599) matrix(-1 0 0 1 338 0) translate(0 3.67)"/>
                            <path fill="#BC3D57" d="M129.751 62.836c4.98-2.865 11.023-.813 15.55 8.996 4.53 9.81 10.95 20.497 23.623 27.38-1.117 5.494-9.062 9.733-9.062 9.733s-18.974-8.092-25.394-18.848c-8.387-14.052-9.697-24.395-4.717-27.26" transform="translate(-807 -1114) translate(208 1114) translate(599) matrix(-1 0 0 1 338 0) translate(0 3.67)"/>
                            <path fill="#FEC500" d="M107.24 143.877c.138 8.364 4.805 17.068 31.428 18.45 25.351 1.318 41.069 1.685 51.375.68 7.414-.723 9.866-19.44-.334-20.191-11.655-.857-44.633-3.128-44.633-3.128l-37.835 4.189z" transform="translate(-807 -1114) translate(208 1114) translate(599) matrix(-1 0 0 1 338 0) translate(0 3.67)"/>
                            <path fill="#FEC500" d="M174.84 158.33L155.22 228.93l16.872 2.394s21.572-67.802 23.786-74.984c-6.982-1.326-21.036 1.992-21.036 1.992" transform="translate(-807 -1114) translate(208 1114) translate(599) matrix(-1 0 0 1 338 0) translate(0 3.67)"/>
                            <path fill="#EE2737" d="M107.24 143.877c-.019-8.92 5.101-46.542 10.12-61.764 5.086-15.424 14.054-28.812 23.936-25.886C157.483 61.02 152 79.893 151.122 93.77c-.877 13.875-6.046 45.918-6.046 45.918s-17.44 3.969-37.835 4.189" transform="translate(-807 -1114) translate(208 1114) translate(599) matrix(-1 0 0 1 338 0) translate(0 3.67)"/>
                            <path fill="#FFC2A1" d="M177.476 117.306c3.396 1.548 6.725 7.912 35.399 5.568 4.278.327 10.249-1.09 10.249-1.09s-.369-7.125-6.471-6.732c-3.917.251-9.943 1.383-16.432.572-7.987-.999-13.695-3.332-18.186-5.507-3.286-1.59-8.955-6.414-8.955-6.414l-6.385 7.815s3.747 2.583 10.78 5.788" transform="translate(-807 -1114) translate(208 1114) translate(599) matrix(-1 0 0 1 338 0) translate(0 3.67)"/>
                            <path fill="#FF8E75" d="M136.647 60.356c4.715-3.42 10.54-1.187 15.057 10.036 4.519 11.224 10.864 23.42 23.125 31.082-.968 6.368-8.497 11.44-8.497 11.44s-18.32-8.917-24.665-21.192c-8.29-16.034-9.735-27.947-5.02-31.366" transform="translate(-807 -1114) translate(208 1114) translate(599) matrix(-1 0 0 1 338 0) translate(0 3.67)"/>
                            <path fill="#FFC2A1" d="M142.811 50.433s20.905 14.917 27.15 9.964c.942-.745 3.551-7.526 5.16-12.473 2.376-7.307 4.211-16.96 2.902-23.564C175.858 13.446 164.55-2.295 154.05.593c-10.497 2.888-34.502 15.504-11.238 49.84" transform="translate(-807 -1114) translate(208 1114) translate(599) matrix(-1 0 0 1 338 0) translate(0 3.67)"/>
                            <path fill="#FFC2A1" d="M173.217 33.062c-.017-.013-.024-.017-.047-.031l.633-1.314c2.576 3.362 5.727 5.851 8.59 8.464-6.68 5.65-12.659-.293-10.673-7.602.616.057 1.186.317 1.497.483.349.234.299.161 0 0" transform="translate(-807 -1114) translate(208 1114) translate(599) matrix(-1 0 0 1 338 0) translate(0 3.67)"/>
                        </g>
                        <g transform="translate(-807 -1114) translate(208 1114) translate(599) matrix(-1 0 0 1 338 0) translate(125.793 1.913)">
                            <mask id="719r18en2e" fill="#fff">
                                <use xlink:href="#x5hile2q8c"/>
                            </mask>
                            <path fill="url(#rg86bcmaod)" d="M23.694 1.04C16.897 2.15 11.184 4.462 5.24 11.814-.705 19.164.392 29.929 2.992 35.979c2.671 6.217 8.058 13.323 12.689 18.142 3.865-1.496 5.844-11.888 7.137-16.968 2.56-4.291 6.989-1.714 8.723-5.118.682-1.341.887-3.569.96-6.067 7.349 3.518 23.574 2.535 26.726-9.39-1.534 2.822-5.816 4.681-5.816 4.681s8.948-7.118.383-13.211c2.43 6.414-1.087 9.556-1.087 9.556s.384-2.18-1.15-4.04c-.124 3.362-2.11 2.95-5.069-.973C43.53 8.67 42.47 6.31 38.714 4.06 35.502 2.134 32.274.69 27.756.69c-1.247 0-2.592.111-4.062.35" mask="url(#719r18en2e)"/>
                        </g>
                        <path fill="#FFC2A1" d="M147.338 36.622c.851 3.504 4.315 7.381 6.61 6.82 2.293-.562 3.465-3.856 2.615-7.358-.852-3.501-3.114-7.991-6.121-7.073-2.258.69-3.954 4.11-3.104 7.61" transform="translate(-807 -1114) translate(208 1114) translate(599) matrix(-1 0 0 1 338 0)"/>
                        <g transform="translate(-807 -1114) translate(208 1114) translate(599) matrix(-1 0 0 1 338 0) translate(168.341 29.756)">
                            <mask id="m2lunfpokh" fill="#fff">
                                <use xlink:href="#zjkqsxqx3f"/>
                            </mask>
                            <path fill="url(#mrmjcvauhg)" d="M.703.936S-.858 7.689 3.531 7.51C7.922 7.334 7.536 1.685 7.394.116 5.388.234.703.936.703.936" mask="url(#m2lunfpokh)"/>
                        </g>
                        <g transform="translate(-807 -1114) translate(208 1114) translate(599) matrix(-1 0 0 1 338 0) translate(168.341 28.828)">
                            <mask id="mx78t5to5k" fill="#fff">
                                <use xlink:href="#8czodeabdi"/>
                            </mask>
                            <path fill="url(#f3bdqnx1hj)" d="M2.54 2.52C6.894 2.552 8.865.81 6.404.636 6.066.612 5.735.6 5.413.6 1.227.6-1.5 2.488 2.54 2.52" mask="url(#mx78t5to5k)"/>
                        </g>
                        <g>
                            <path stroke="#4B2B19" stroke-width=".793" d="M152.93 36.655c1.377-2.442 4.074-1.36 3.887.773" transform="translate(-807 -1114) translate(208 1114) translate(599) matrix(-1 0 0 1 338 0) translate(17.574 .057)"/>
                            <path fill="#D3CCB5" d="M155.994 235.948l-19.29-2.576c-.665-.089-1.132-.7-1.043-1.368l.515-3.881c.088-.665.698-1.134 1.363-1.046l19.29 2.576c.664.089 1.13.701 1.042 1.368l-.514 3.88c-.09.668-.699 1.136-1.363 1.047" transform="translate(-807 -1114) translate(208 1114) translate(599) matrix(-1 0 0 1 338 0) translate(17.574 .057)"/>
                            <path fill="#E50042" d="M236.787 196.65c40.348-14.097 52.973 24.466 52.973 24.466s-21.367-4.927-37.691 6.393c-18.735 12.991-28.275 23.448-42.343 19.318-2.711-5.94 2.351-41.542 27.061-50.176" transform="translate(-807 -1114) translate(208 1114) translate(599) matrix(-1 0 0 1 338 0) translate(17.574 .057)"/>
                            <path fill="#3D3C3C" d="M205.966 127.181c0 3.073-2.483 5.564-5.544 5.564-3.063 0-5.544-2.49-5.544-5.564 0-3.073 2.481-5.563 5.544-5.563 3.061 0 5.544 2.49 5.544 5.563" transform="translate(-807 -1114) translate(208 1114) translate(599) matrix(-1 0 0 1 338 0) translate(17.574 .057)"/>
                            <path fill="#2A2A29" d="M203.102 127.181c0 1.485-1.2 2.69-2.68 2.69-1.48 0-2.68-1.205-2.68-2.69 0-1.485 1.2-2.688 2.68-2.688 1.48 0 2.68 1.203 2.68 2.688" transform="translate(-807 -1114) translate(208 1114) translate(599) matrix(-1 0 0 1 338 0) translate(17.574 .057)"/>
                            <path stroke="#D4E5EF" stroke-width="1.018" d="M146.167 42.683L136.455 33.568M141.102 58.241L120.22 50.278" transform="translate(-807 -1114) translate(208 1114) translate(599) matrix(-1 0 0 1 338 0) translate(17.574 .057)"/>
                            <g transform="translate(-807 -1114) translate(208 1114) translate(599) matrix(-1 0 0 1 338 0) translate(17.574 .057) translate(107.294)">
                                <mask id="weig28utxm" fill="#fff">
                                    <use xlink:href="#yjmwwnqs3l"/>
                                </mask>
                                <path fill="#FFC600" d="M4.735 46.658S-9.46 16.02 14.596 4.076C38.652-7.87 51.493 17.425 51.493 17.425L31.401 28.292s.372 3.186.637 8.062c.242 4.493-.537 12.55-7.933 15.09-8.122 2.787-16.11.195-19.37-4.786" mask="url(#weig28utxm)"/>
                            </g>
                            <path fill="#FFC600" d="M108.117 23.433c-1.434 11.679 3.912 23.225 3.912 23.225 3.262 4.981 11.248 7.573 19.37 4.785 7.397-2.54 8.176-10.596 7.933-15.09l-.04-.698c-11.304 1.535-23.058-2.448-31.175-12.222" transform="translate(-807 -1114) translate(208 1114) translate(599) matrix(-1 0 0 1 338 0) translate(17.574 .057)"/>
                            <path stroke="#4A3A00" stroke-linecap="round" stroke-linejoin="round" stroke-width="2.063" d="M112.03 46.658s4.592 7.724 16.54 5.473c7.966-1.52 10.715-7.712 10.715-13.566 0-5.853-.59-10.273-.59-10.273l20.093-10.867" transform="translate(-807 -1114) translate(208 1114) translate(599) matrix(-1 0 0 1 338 0) translate(17.574 .057)"/>
                            <path fill="#CADEF8" d="M160.713 36.588c-.434.91-2.877 3.105-6.022 4.532-3.144 1.428-7.57.745-9.292.369-3.518 4.206-6.09 14.637-4.801 17.442 3.172 2.311 8.05 4.15 11.809 4.54.679.07 1.35-.142 1.858-.6 5.386-4.86 11.009-17.405 10.794-19.121-.225-1.804-4.01-4.837-4.346-7.162" transform="translate(-807 -1114) translate(208 1114) translate(599) matrix(-1 0 0 1 338 0) translate(17.574 .057)"/>
                            <path fill="#98C1D6" d="M146.39 43.004c4.6.577 8.547.113 12.004-2.588.934-.73 1.831-1.634 2.698-2.716-.19-.382-.328-.756-.38-1.112-.432.909-2.876 3.106-6.02 4.533-3.145 1.427-7.57.743-9.292.368-3.519 4.206-6.091 14.638-4.802 17.443 3.172 2.31 8.048 4.148 11.807 4.539.672.07 1.333-.138 1.84-.586-2.363-.538-9.88-2.378-12.167-4.465-1.04-3.48 1.736-12.73 4.312-15.416" transform="translate(-807 -1114) translate(208 1114) translate(599) matrix(-1 0 0 1 338 0) translate(17.574 .057)"/>
                            <path fill="#DC202F" d="M102.354 213.83c-3.27-8.134-8.666-14.889-15.388-19.892 7.422 28.348-34.979 67.059-86.045 39.274-.665 3.135-.836 5.068-.836 5.068 11.42 8.957 86.767 15.279 102.388 12.118 1.575-3.82 6.137-21.004-.12-36.567" transform="translate(-807 -1114) translate(208 1114) translate(599) matrix(-1 0 0 1 338 0) translate(17.574 .057)"/>
                            <path fill="#920F29" d="M53.495 184.281c4.078-.329 8.198-.215 12.265.39 4.071.596 8.047 1.78 11.863 3.346.94.426 1.917.776 2.82 1.282l2.737 1.46 2.62 1.667c.444.267.866.568 1.274.887l1.241.936c3.268 2.542 6.277 5.459 8.791 8.782 2.498 3.331 4.589 6.975 6.153 10.85 1.544 3.896 2.47 8.014 2.895 12.163.425 4.153.36 8.34-.083 12.478-.233 2.068-.543 4.13-.987 6.167-.442 2.046-.944 4.048-1.72 6.08l-.182.472-.519.105c-2.228.447-4.409.57-6.598.688-2.185.098-4.364.136-6.54.127-4.352-.008-8.692-.15-13.029-.359-4.336-.208-8.666-.488-12.99-.832-4.326-.344-8.647-.726-12.956-1.231-8.62-.975-17.22-2.155-25.758-3.714-4.264-.81-8.512-1.714-12.705-2.847-2.091-.587-4.181-1.18-6.216-1.95-2.021-.772-4.07-1.601-5.786-2.948 1.774 1.263 3.842 1.988 5.887 2.661 2.046.692 4.146 1.212 6.244 1.72 4.21.984 8.47 1.734 12.742 2.396 8.537 1.371 17.135 2.364 25.746 3.153 8.614.761 17.237 1.458 25.872 1.797 4.317.177 8.635.289 12.945.265 4.29-.044 8.656-.13 12.761-.822l-.7.578c.703-1.797 1.226-3.78 1.66-5.74.443-1.969.759-3.969.998-5.974.458-4.015.549-8.078.166-12.093-.383-4.013-1.249-7.982-2.702-11.727-1.507-3.73-3.407-7.308-5.769-10.582-2.367-3.27-5.229-6.166-8.362-8.712l-1.192-.938c-.39-.322-.796-.624-1.224-.893l-2.526-1.682-2.65-1.486c-.434-.262-.894-.475-1.354-.683l-1.375-.65c-3.689-1.666-7.569-2.973-11.577-3.701-4.005-.72-8.09-1.014-12.18-.886" transform="translate(-807 -1114) translate(208 1114) translate(599) matrix(-1 0 0 1 338 0) translate(17.574 .057)"/>
                            <path fill="#BD0E36" d="M238.458 196.095c-.554.176-1.108.36-1.67.556-24.711 8.633-29.772 44.237-27.061 50.177 10.774 3.162 18.896-2.236 30.526-10.772-9.74-4.044-16.544-20.095-1.795-39.961" transform="translate(-807 -1114) translate(208 1114) translate(599) matrix(-1 0 0 1 338 0) translate(17.574 .057)"/>
                        </g>
                    </g>
                </g>
            </g>
        </g>
    </g>
</svg>
